<svg xmlns="http://www.w3.org/2000/svg" viewBox="0 0 411.32 344.92"><defs><style>.cls-1{isolation:isolate;}.cls-10,.cls-11,.cls-2,.cls-3,.cls-4,.cls-5,.cls-6,.cls-7,.cls-8,.cls-9{fill:none;stroke-width:2px;}.cls-2{stroke:#c73d17;}.cls-10,.cls-11,.cls-13,.cls-14,.cls-2,.cls-3,.cls-4,.cls-5,.cls-6,.cls-7,.cls-8,.cls-9{stroke-linecap:round;stroke-linejoin:round;}.cls-3{stroke:#f5e5a9;}.cls-4{stroke:#321200;}.cls-5{stroke:#e69e4a;}.cls-6{stroke:#3a1702;}.cls-7{stroke:#542510;}.cls-8{stroke:#51807b;}.cls-9{stroke:#426a65;}.cls-10{stroke:#578984;}.cls-11{stroke:#c8bd8d;}.cls-12{mix-blend-mode:multiply;}.cls-13,.cls-14{fill:#fff;stroke:#1d1d1b;stroke-width:0.75px;}.cls-14{fill-rule:evenodd;}</style></defs><g class="cls-1"><g id="Capa_1" data-name="Capa 1"><path class="cls-2" d="M177.58,141.11c-.06.07,1.35,1.22,1.28,1.28-.41.41,5.24,10.08,4.83,10.49-.11.1,2.21,2,2.11,2.11" transform="translate(-6.94 -39.82)"/><path class="cls-2" d="M314.29,133.44c-1.86,1.86,39.1,35.37,37.23,37.23-1.34,1.34-28.16-25.19-29.5-23.85-2,2,42.54,38.49,40.52,40.52-1.77,1.76-36.26-34.13-38-32.37s39.08,35.36,37.22,37.23c-1.57,1.56-32.42-29.9-34-28.33s33.69,30.48,32.09,32.08c-1.28,1.28-26.89-23.78-28.17-22.51s27.61,25,26.3,26.3c-1.05,1-22.55-19-23.59-17.94s24.42,22.1,23.26,23.27c-.94.93-20.4-16.62-21.34-15.68-.71.71,15,13.55,14.26,14.26-.52.52-12.34-7.73-12.86-7.21-.36.36,7.58,6.86,7.22,7.22" transform="translate(-6.94 -39.82)"/><path class="cls-2" d="M349.61,154c-.2.2,4.27,3.86,4.07,4.07" transform="translate(-6.94 -39.82)"/><path class="cls-2" d="M268.13,72.56c-.2.2,4.28,3.87,4.07,4.07-.36.37-9.19-4.27-9.56-3.9-4.54,4.54,95.42,86.33,90.88,90.87S262.9,69.4,258.28,74s98.64,89.25,94,93.94-93.89-97.81-98.68-93c-2.21,2.2,46.33,41.91,44.12,44.12-2.92,2.91-58.14-58.31-61.05-55.4-2.34,2.34,49,44.37,46.7,46.71s-48.41-47.57-50.81-45.16c-1.82,1.82,38.23,34.59,36.41,36.41s-38.23-36.31-40.09-34.44c-1.48,1.48,31,28.05,29.52,29.52s-32-29.44-33.56-27.9c-1.23,1.23,25.79,23.34,24.56,24.57C247.68,95,215,61.32,213.31,63c-1.4,1.4,29.4,26.6,28,28-1.64,1.64-33.88-31.51-35.52-29.87-1.41,1.41,29.54,26.73,28.13,28.14s-30.21-27.45-31.65-26c-1.24,1.24,26,23.56,24.8,24.8s-26.65-23.51-27.91-22.25c-1.08,1.08,22.61,20.46,21.53,21.53S196.92,67,195.8,68.11c-.93.94,19.72,17.84,18.78,18.78s-22.81-19.28-23.87-18.22c-.9.9,18.91,17.12,18,18-1.28,1.29-27.12-24-28.41-22.75s24,21.74,22.9,22.89-26.72-23.6-28-22.33S198.93,86,197.8,87.08s-24.4-21-25.55-19.89,21.45,19.4,20.43,20.42-22-18.34-23-17.32,18.88,17.08,18,18-19.84-16-20.75-15.09,16.73,15.14,15.94,15.94S163.85,74,163,74.89s16,14.46,15.22,15.22c-1,1-21.3-17.61-22.28-16.63s18.64,16.87,17.75,17.75c-1.1,1.1-23.5-20-24.6-18.94S170.3,91.5,169.29,92.51s-22.8-19.26-23.86-18.2S166,92.91,165,93.89,144.1,76.71,143.14,77.67s18.63,16.86,17.74,17.74S142,80.5,141.17,81.36,157.62,96.24,156.83,97s-17.21-13.09-18-12.32,14.77,13.36,14.07,14.07-17-12.92-17.81-12.16,14.69,13.29,14,14c-.86.86-18.91-15-19.77-14.11s16.85,15.25,16,16.05c-1,1-21-17.25-21.94-16.28s19.24,17.41,18.32,18.32S120.52,87,119.54,88s19.62,17.76,18.69,18.69-19.85-16-20.75-15.09,18.2,16.47,17.33,17.33-17.89-13.85-18.7-13,16.1,14.57,15.34,15.34-16.19-12-16.9-11.25,14.36,13,13.67,13.68-15.72-11.46-16.42-10.76,13.78,12.46,13.13,13.12-16.8-12.64-17.55-11.89,14.38,13,13.7,13.7-18-14-18.83-13.17,16,14.44,15.2,15.2-18.78-14.83-19.63-14,17,15.38,16.18,16.18S96,108.15,95.23,109s16.37,14.82,15.59,15.6S95,112.94,94.26,113.64s14.25,12.9,13.57,13.58-13.56-9.08-14.15-8.49S105.56,129.47,105,130s-12.31-7.69-12.83-7.17,10.78,9.75,10.26,10.26-13-8.43-13.53-7.88,11.72,10.61,11.16,11.16S85.31,126,84.67,126.68s13.83,12.51,13.17,13.17c-.35.35-8.88-3.92-9.23-3.57s7.69,6.95,7.32,7.32c-.81.81-18-14-18.82-13.16s18,16.27,17.13,17.13-17.58-13.51-18.37-12.72,17.75,16.06,16.91,16.91c-.7.69-15.75-11.48-16.45-10.79s16.08,14.55,15.31,15.31-14.92-10.57-15.57-9.91,14.54,13.15,13.85,13.85S74.41,149,73.73,149.69,88.79,163.31,88.07,164s-17-12.9-17.79-12.14S87.2,167.2,86.39,168,67.46,153,66.6,153.87,85.67,171.13,84.77,172s-20.46-16.67-21.4-15.73S84.3,175.23,83.3,176.23,62.89,159.59,62,160.53s21,19,20,20c-.78.78-17.41-13.32-18.19-12.54s17.83,16.13,17,17c-.68.68-15.56-11.28-16.25-10.59s15.87,14.36,15.12,15.11-16.5-12.31-17.24-11.58,17.13,15.5,16.31,16.31S60.16,179.7,59.33,180.54,78.71,198.08,77.79,199s-20.57-16.81-21.52-15.86,22,19.88,20.93,20.93-22.36-18.78-23.4-17.75,24,21.74,22.88,22.89c-1,1-21.34-17.66-22.33-16.68s23.25,21,22.14,22.14c-.76.77-17.11-13-17.87-12.21s18.71,16.92,17.82,17.81-18.23-14.21-19-13.39,20.22,18.3,19.25,19.26-20.72-17-21.67-16c-1.12,1.11,23.33,21.11,22.22,22.22s-23.63-20.18-24.73-19.07c-1.28,1.27,26.83,24.27,25.55,25.55S51.8,215.79,50.56,217c-1.43,1.43,30.12,27.25,28.69,28.68-1,1-21.09-17.37-22.06-16.4C56,230.51,82.32,252,81.12,253.24c-1,1-21.88-18.25-22.9-17.24C57,237.27,85,260.19,83.69,261.46s-26-22.78-27.22-21.56,27.31,24.71,26,26-26.69-23.56-27.95-22.29S81.9,268.39,80.6,269.69s-26-22.85-27.28-21.62S80,272.2,78.72,273.47c-.58.59-13.61-9.13-14.2-8.54s12.94,11.71,12.33,12.32S64,269,63.44,269.5c-.21.21,4.37,3.95,4.16,4.16" transform="translate(-6.94 -39.82)"/><path class="cls-2" d="M336,128.33c-.18.18,3.7,3.36,3.52,3.53-.48.49-11.58-6.89-12.07-6.41s13.05,11.8,12.43,12.43" transform="translate(-6.94 -39.82)"/><path class="cls-2" d="M294.39,86.68c-.18.18,3.7,3.35,3.52,3.52-.36.37-9.18-4.24-9.54-3.88-.62.62,13.05,11.81,12.43,12.43s-16.9-12.76-17.66-12c-2.82,2.82,59.17,53.54,56.36,56.35" transform="translate(-6.94 -39.82)"/><path class="cls-2" d="M317.53,105.61c-.16.15,3.26,3,3.11,3.11-.39.39-9.63-4.74-10-4.36-.56.57,11.83,10.7,11.26,11.26" transform="translate(-6.94 -39.82)"/><path class="cls-2" d="M140.65,354.33c-.49.5,10.44,9.44,9.94,9.94" transform="translate(-6.94 -39.82)"/><path class="cls-2" d="M299.93,338.76s.39.36.37.38c-.17.17-4.59.72-4.76.89s3.61,3.26,3.44,3.43-7.53-2.44-7.82-2.16,6.42,5.82,6.12,6.12-10.13-5.29-10.53-4.87,7.78,7,7.41,7.41-11.49-6.79-12-6.31c-.33.33,6.95,6.28,6.62,6.61s-10.73-5.95-11.17-5.51c-.25.26,5.27,4.77,5,5s-9.25-4.33-9.62-4,5.41,4.89,5.15,5.15-9.5-4.6-9.88-4.22,7.57,6.85,7.21,7.21-11.46-6.76-11.94-6.28,10.41,9.42,9.92,9.91-14.12-9.69-14.74-9.07,13.28,12,12.65,12.64-16.81-12.65-17.56-11.9,15.33,13.87,14.6,14.6-18.66-14.7-19.51-13.86c-.69.7,14.55,13.17,13.86,13.86s-18.11-14.09-18.93-13.27c-.56.56,11.74,10.62,11.18,11.18s-15.61-11.32-16.29-10.64,12,10.83,11.39,11.4-15.84-11.59-16.54-10.89,14.23,12.88,13.55,13.56-18.06-14-18.88-13.23,17.12,15.5,16.31,16.31-20.68-16.92-21.63-16,19.83,17.95,18.89,18.89c-1.09,1.09-23.28-19.8-24.37-18.71s21.46,19.41,20.44,20.44-24.83-21.51-26-20.34c-.83.83,17.48,15.81,16.65,16.64s-21.28-17.59-22.26-16.6c-.77.76,16,14.47,15.23,15.24s-20.12-16.31-21-15.39,18.27,16.53,17.4,17.4c-1,1-22.17-18.58-23.2-17.55s21.07,19.07,20.07,20.07c-1.17,1.18-25-21.65-26.14-20.48s24,21.72,22.86,22.86c-1.31,1.32-27.62-24.59-28.94-23.28s25.41,23,24.2,24.2c-1.39,1.39-29.11-26.24-30.51-24.85-.83.84,17.57,15.89,16.73,16.73-1,1-22.08-18.48-23.11-17.46s19.53,17.67,18.6,18.6c-1.13,1.13-24.08-20.68-25.21-19.55s22.55,20.4,21.48,21.48c-1.28,1.27-26.92-23.82-28.2-22.54s25.58,23.14,24.36,24.35c-1.44,1.44-29.91-27.12-31.35-25.68-.76.76,16,14.5,15.28,15.27-1,1-21.39-17.71-22.38-16.72-.84.84,17.63,15.95,16.79,16.79-1.08,1.08-23.18-19.69-24.26-18.61s20.87,18.89,19.88,19.88c-1.24,1.24-26.23-23.05-27.47-21.81-.43.43,9,8.13,8.56,8.56-.71.7-15.91-11.66-16.62-11-.54.54,11.34,10.26,10.8,10.8s-13.05-8.51-13.61-8,8.77,7.93,8.35,8.35" transform="translate(-6.94 -39.82)"/><path class="cls-2" d="M334.63,264.78c-.56.57,11.94,10.8,11.37,11.37-.2.2-5.49-.24-5.69,0s2.25,2,2.14,2.15" transform="translate(-6.94 -39.82)"/><path class="cls-2" d="M356.94,234.08s.46.43.44.45-2.83,2.54-3,2.68c-.37.37,7.87,7.11,7.49,7.49-.53.53-12.54-7.95-13.07-7.42s13.87,12.55,13.21,13.21c-.81.82-18-14-18.87-13.21s17.13,15.5,16.31,16.31S339,236.91,338.08,237.85s19.24,17.41,18.32,18.33-18.35-14.36-19.18-13.53,17,15.41,16.22,16.22-16.4-12.2-17.13-11.47,15.89,14.37,15.13,15.13-15.61-11.33-16.29-10.64c-.87.86,18.1,16.38,17.24,17.25S334.75,255.57,334,256.36s17.75,16.06,16.91,16.91-17.55-13.47-18.34-12.68,15.52,14,14.78,14.78" transform="translate(-6.94 -39.82)"/><path class="cls-2" d="M301.52,213.73s.48.43.45.45-3.77,1.58-3.92,1.74,4.16,3.76,4,4-7.06-1.94-7.32-1.67,7.46,6.75,7.1,7.1-6.84-1.7-7.1-1.44,6.86,6.21,6.54,6.54-6.31-1.12-6.54-.88,6.08,5.5,5.79,5.79-5.58-.34-5.79-.13,5.07,4.58,4.83,4.82-4.65.66-4.82.84,3.79,3.43,3.61,3.61-3.46,1.9-3.61,2,2.4,2.17,2.29,2.28-2.14,3.23-2.29,3.37.77.7.74.74" transform="translate(-6.94 -39.82)"/><path class="cls-2" d="M120.24,216.88c-.08.08,1.62,1.47,1.54,1.54-.29.29-7.57-2.48-7.86-2.2s8.25,7.47,7.86,7.86S114.3,221.7,114,222s8.15,7.37,7.76,7.76-7.09-2-7.36-1.7,7.73,7,7.36,7.35-6.26-1.06-6.49-.83,6.81,6.17,6.49,6.49-4.78.52-5,.7,5.21,4.71,5,5-2.26,3.11-2.41,3.25,2.53,2.28,2.41,2.4" transform="translate(-6.94 -39.82)"/><path class="cls-2" d="M339,205.57c-.14.15,3.12,2.83,3,3s-2.4,3-2.54,3.12c-.54.54,11.27,10.2,10.74,10.74-.27.27-7.09-2-7.35-1.69s5,4.56,4.8,4.8-7.05-1.93-7.32-1.66,5,4.54,4.78,4.77-5.68-.43-5.89-.22,3.51,3.17,3.34,3.34-3.68,1.67-3.83,1.82,1.35,1.22,1.29,1.29" transform="translate(-6.94 -39.82)"/><path class="cls-2" d="M230.83,127s.59.53.56.56c-.28.28-7.45-2.36-7.73-2.08s5.23,4.74,5,5c-.46.46-11-6.27-11.47-5.81s9.37,8.48,8.92,8.92c-.62.62-14.31-9.89-14.93-9.27s13.18,11.92,12.55,12.55c-.78.78-17.45-13.36-18.24-12.58s16.89,15.28,16.09,16.08c-.95,1-20.57-16.8-21.52-15.85s20.62,18.65,19.64,19.63-23.56-20.1-24.66-19,24.14,21.84,23,23-26.6-23.46-27.86-22.2,27.75,25.1,26.43,26.43-29.68-26.87-31.1-25.45,31.54,28.54,30,30c-.82.82-18.12-14.1-18.94-13.28s14.68,13.29,14,14c-.41.41-10.16-5.33-10.57-4.92-.24.25,5.17,4.68,4.93,4.92" transform="translate(-6.94 -39.82)"/><path class="cls-2" d="M239.37,137.19c-.11.11,2.3,2.08,2.19,2.19s-4.32,1-4.49,1.17,1.94,1.75,1.85,1.84-4,1.36-4.14,1.52,1.88,1.7,1.79,1.79-3.94,1.41-4.09,1.57,2.12,1.91,2,2-4.15,1.19-4.31,1.35,1.65,1.48,1.57,1.56" transform="translate(-6.94 -39.82)"/><path class="cls-3" d="M301.57,141.11c-.07.07,1.34,1.22,1.28,1.28-.41.41,5.21,10.06,4.8,10.47-.1.1,2.24,2,2.13,2.12" transform="translate(-6.94 -39.82)"/><path class="cls-3" d="M115.39,137.19c-.11.11,2.3,2.08,2.19,2.19s-4.32,1-4.49,1.17,1.94,1.75,1.85,1.84-4,1.36-4.15,1.52,1.89,1.7,1.8,1.79-3.94,1.41-4.09,1.57,2.11,1.91,2,2-4.15,1.19-4.31,1.35,1.65,1.49,1.57,1.56" transform="translate(-6.94 -39.82)"/><path class="cls-3" d="M287.08,113.25c-.09.09,1.82,1.65,1.73,1.74-.76.76-17-12.85-17.75-12.09-.49.49,10.44,9.43,9.94,9.93-.93.93-20.17-16.36-21.1-15.44-.73.73,15.3,13.84,14.57,14.57-1.06,1.05-22.68-19.14-23.74-18.08-.9.9,18.87,17.07,18,18-1.17,1.17-25-21.67-26.15-20.49s21.89,19.8,20.85,20.85c-1.28,1.28-27.06-24-28.34-22.69s24.68,22.33,23.5,23.5c-1.38,1.39-29-26.08-30.36-24.7s27.19,24.6,25.9,25.9c-1.48,1.48-30.88-28.19-32.36-26.71s29.56,26.75,28.16,28.16c-1.58,1.58-32.76-30.27-34.35-28.68s31.9,28.85,30.38,30.37c-1.68,1.68-34.56-32.25-36.24-30.58s34.19,30.94,32.57,32.57c-1.78,1.77-36.38-34.27-38.15-32.49s36.44,33,34.7,34.7-38.29-36.38-40.16-34.51,38.73,35,36.88,36.89-40-38.32-42-36.35,40.91,37,39,39-42-40.42-44-38.36c-1.89,1.89,39.64,35.87,37.75,37.75S185.66,87,183.66,89c-1.79,1.79,37.65,34.06,35.86,35.85S180.85,88.09,179,90c-1.71,1.72,36.07,32.63,34.35,34.35s-37.07-35-38.88-33.22c-1.65,1.65,34.67,31.37,33,33S171.74,90.61,170,92.34s33.61,30.41,32,32S167.4,92,165.72,93.72s32.67,29.56,31.11,31.11-33.65-31.25-35.28-29.62,31.8,28.77,30.29,30.29-32.75-30.26-34.33-28.68,31.15,28.19,29.67,29.67S155.1,97,153.56,98.53c-1.05,1,22,19.93,21,21s-23.7-20.26-24.81-19.15c-.71.72,15.05,13.62,14.34,14.34S146.76,101.49,146,102.27c-.52.52,11,10,10.52,10.51s-13.55-9-14.13-8.47c-.39.38,8,7.28,7.66,7.66s-10.78-6-11.23-5.57c-.27.27,5.74,5.19,5.46,5.46s-8.54-3.55-8.88-3.22c-.18.18,3.83,3.47,3.65,3.65s-6.79-1.64-7-1.39,2.33,2.11,2.22,2.22-5.25,0-5.45.21c0,0,1,.92,1,1" transform="translate(-6.94 -39.82)"/><path class="cls-3" d="M91.19,157.72s.15.14.14.15-1.84,3.52-2,3.67,1.39,1.26,1.32,1.33-3,2.35-3.15,2.49,3.12,2.83,3,3-4.43.89-4.6,1.06,5.26,4.75,5,5-6.39-1.2-6.63-1c-.39.39,8.38,7.57,8,8s-9-4.06-9.36-3.71c-.62.62,12.93,11.71,12.32,12.33S82.07,181.42,81.5,182c-1.62,1.62,34,30.79,32.41,32.41S81.91,185,80.37,186.5s35.18,31.83,33.51,33.51-33-30.56-34.62-29,36.61,33.12,34.86,34.86S80.06,194.2,78.41,195.85c-1.83,1.83,38.33,34.68,36.5,36.51S79.35,199,77.62,200.72c-1.93,1.93,40.56,36.7,38.63,38.63S78.9,204,77.08,205.84c-2.07,2.06,43.37,39.24,41.3,41.3s-39.75-38-41.7-36c-2.26,2.26,47.33,42.83,45.07,45.08s-43.14-41.74-45.27-39.61,47.58,43,45.31,45.3-43.1-41.69-45.22-39.56,47.5,43,45.23,45.23c-2.11,2.12-42.88-41.45-45-39.34s47.17,42.69,44.93,44.93c-2.08,2.08-42.18-40.67-44.25-38.59S124,276.59,121.76,278.8c-2,2-41.23-39.63-43.26-37.6-1.85,1.85,38.94,35.23,37.08,37.08-1.64,1.65-34-31.65-35.66-30-1.3,1.3,27.32,24.71,26,26-1.07,1.06-22.94-19.42-24-18.36-.67.68,14.15,12.81,13.48,13.48" transform="translate(-6.94 -39.82)"/><path class="cls-3" d="M339,225.38s.28.25.27.27l-2.8,2.85c-.12.12,2.53,2.3,2.41,2.42s-4.76.53-4.94.71,4.56,4.13,4.34,4.34-6.62-1.46-6.87-1.21,6.36,5.76,6.06,6.06-8.85-3.9-9.2-3.55,8.74,7.92,8.33,8.33c-.58.58-13.41-8.9-14-8.32s13.54,12.24,12.89,12.89S317.79,236.48,317,237.28s18.25,16.51,17.38,17.38" transform="translate(-6.94 -39.82)"/><path class="cls-3" d="M325.43,159.61s.54.49.52.52c-.2.2.21,5.46,0,5.66s4.64,4.2,4.42,4.42-4.39.94-4.56,1.1c-.38.39,8,7.26,7.63,7.64s-7.9-2.86-8.2-2.55c-.52.52,10.94,9.9,10.42,10.42s-10.91-6.15-11.36-5.7c-.65.65,13.63,12.33,13,13s-13.64-9.16-14.23-8.57c-.76.76,16,14.48,15.24,15.24s-16.14-11.92-16.85-11.2c-.88.88,18.45,16.69,17.57,17.57s-18.57-14.59-19.41-13.75c-1,1,20.76,18.78,19.77,19.77s-20.84-17.1-21.8-16.14c-.33.33,7,6.29,6.63,6.62s-8.58-3.59-8.92-3.26c-.16.17,3.42,3.1,3.26,3.26s-5.57-.31-5.77-.11c0,0,.74.67.7.7s-3.23,2.14-3.37,2.28c-.77.77,16.21,14.67,15.44,15.44S308,208.49,307.22,209.28s16.57,15,15.78,15.78S304.91,211,304.09,211.81s17.19,15.55,16.37,16.36-17.61-13.53-18.4-12.74,16.64,15.06,15.85,15.86-15.22-10.9-15.89-10.23,14,12.67,13.35,13.34-13-8.5-13.6-7.94c-1.58,1.58,33.14,30,31.56,31.56s-30.7-28-32.18-26.52,32.29,29.21,30.76,30.75-30.13-27.36-31.58-25.91,30.79,27.85,29.32,29.31-28.9-26-30.28-24.62,27.86,25.2,26.53,26.53-26.55-23.41-27.8-22.15,25.25,22.85,24,24.06-24.3-20.92-25.44-19.78,22.74,20.57,21.66,21.65-22.18-18.58-23.21-17.55,20.26,18.33,19.3,19.3-18.9-15-19.76-14.1,16.64,15.05,15.84,15.84S295.37,264,294.7,264.65s12.51,11.31,11.92,11.91-11.41-6.7-11.89-6.23,8.21,7.43,7.82,7.82-7.52-2.43-7.8-2.15,3.91,3.55,3.73,3.73" transform="translate(-6.94 -39.82)"/><path class="cls-4" d="M140.63,259.31c-.46.46,9.68,8.76,9.22,9.22" transform="translate(-6.94 -39.82)"/><path class="cls-4" d="M280.57,259.31c-.47.46,9.65,8.74,9.19,9.2" transform="translate(-6.94 -39.82)"/><path class="cls-4" d="M267.43,242.08c-1.32,1.33,27.75,25.11,26.42,26.43s-25.48-22.23-26.69-21c-.49.49,10.46,9.46,10,10s-12.15-7.51-12.66-7c-.91.9,19,17.18,18.08,18.08s-21.94-18.32-23-17.3c-.86.87,18.17,16.44,17.31,17.3" transform="translate(-6.94 -39.82)"/><path class="cls-4" d="M250.25,231.75c-.35.35,7.37,6.67,7,7s-6.76-1.61-7-1.36,4.67,4.22,4.45,4.44-4.28,1.06-4.44,1.22,5,4.53,4.77,4.77-4.59.73-4.76.9c-1,1,20.76,18.79,19.77,19.77s-18.91-15-19.77-14.11c-.7.71,14.82,13.41,14.12,14.11s-16-11.72-16.68-11c-.55.55,11.57,10.47,11,11-.7.7-16-11.73-16.67-11-.55.55,11.57,10.47,11,11-.71.7-16-11.72-16.67-11-.55.55,11.56,10.47,11,11-.7.71-16-11.72-16.67-11-.55.55,11.57,10.46,11,11-.71.71-16-11.71-16.67-11-.55.55,11.56,10.46,11,11-.71.71-16-11.71-16.66-11-.55.55,11.55,10.45,11,11-.7.71-15.95-11.71-16.65-11-.55.55,11.55,10.45,11,11-.71.71-16-11.7-16.66-11-.55.55,11.55,10.46,11,11-.7.7-15.94-11.71-16.65-11-.55.55,11.55,10.45,11,11-.71.7-16-11.7-16.65-11s11.54,10.45,11,11c-.7.7-15.94-11.7-16.65-11-.54.55,11.55,10.44,11,11-.71.7-15.94-11.69-16.65-11-.55.55,11.54,10.44,11,11-.7.71-15.94-11.69-16.64-11-.55.55,11.54,10.43,11,11-.71.71-15.94-11.68-16.64-11-.55.55,11.53,10.43,11,11" transform="translate(-6.94 -39.82)"/><path class="cls-4" d="M163.88,242.06c-.27.27,5.67,5.13,5.4,5.4s-5.45-.19-5.65,0,6,5.38,5.67,5.67-8.06-3-8.37-2.72c-.91.91,19,17.21,18.11,18.11s-22-18.33-23-17.32c-.87.87,18.19,16.46,17.32,17.33" transform="translate(-6.94 -39.82)"/><path class="cls-4" d="M214.59,157.66s.65.59.62.62c-.22.22-6-.81-6.25-.59s5.92,5.35,5.64,5.64c-.45.44-10.82-6.06-11.27-5.61s11.7,10.58,11.15,11.14-12.23-7.6-12.75-7.09,13.86,12.55,13.2,13.21-12.34-7.74-12.86-7.22c-.72.72,15,13.61,14.31,14.32s-14-9.57-14.62-9c-.89.89,18.71,16.93,17.82,17.82S201.81,177.23,201,178c-3,3,62.63,56.67,59.65,59.65s-57.82-58-60.72-55.06c-2.42,2.42,50.8,46,48.38,48.38S201,184.58,198.6,186.92s46.27,41.87,44.07,44.08-43.6-42.25-45.75-40.1S239,229,237,231,197,192.67,195,194.63s38.19,34.56,36.38,36.38-36.69-34.61-38.48-32.82c-1.64,1.64,34.46,31.18,32.82,32.82s-33.56-31.15-35.18-29.53,31,28.06,29.53,29.53S189.42,203.09,188,204.56c-1.32,1.32,27.78,25.14,26.46,26.46s-27.86-24.85-29.19-23.53c-1.17,1.18,24.71,22.36,23.54,23.53S183.43,209,182.24,210.16,204.15,230,203.1,231s-23-19.46-24-18.39,19.31,17.47,18.39,18.39S176.67,214,175.72,215c-.8.8,16.88,15.27,16.08,16.08s-18.85-14.9-19.7-14c-.71.7,14.75,13.35,14,14S169,218,168.25,218.8c-.62.61,12.85,11.63,12.24,12.24s-15.61-11.33-16.3-10.64c-.53.53,11.18,10.12,10.65,10.65s-14.39-10-15-9.36c-.47.47,9.93,9,9.46,9.45s-13.61-9.12-14.19-8.53,14.9,13.48,14.19,14.19S150.83,222.34,150,223.18s20.24,18.31,19.28,19.28c-1.11,1.11-23.72-20.28-24.83-19.17-.73.73,15.31,13.85,14.58,14.58-.91.91-19.86-16-20.77-15.11s16.62,15,15.83,15.82c-1,1-22-18.39-23-17.37s21.3,19.27,20.28,20.28c-1.33,1.33-27.95-25-29.28-23.62s30.29,27.4,28.85,28.84S123.15,222,121.83,223.3c-2.26,2.26,47.51,43,45.24,45.24C165,270.66,124,226.83,121.84,229c-2,2,41.56,37.6,39.58,39.58s-37.73-35.76-39.58-33.92c-1.69,1.7,35.62,32.22,33.92,33.92s-32.35-29.81-33.91-28.25c-.84.84,17.77,16.07,16.92,16.92s-16.19-12-16.91-11.26,15.24,13.79,14.52,14.52-13.92-9.46-14.52-8.86c-.84.85,17.79,16.09,16.94,16.94s-16.21-12-16.93-11.28,11.84,10.72,11.28,11.28-10.84-6.07-11.28-5.62c-.28.28,5.91,5.35,5.63,5.63" transform="translate(-6.94 -39.82)"/><path class="cls-4" d="M294.11,218s.53.47.5.5-4.31,1-4.48,1.17,4.71,4.26,4.48,4.48-8.41-3.4-8.73-3.08,9.17,8.3,8.73,8.74-12.71-8.14-13.26-7.6,13.92,12.59,13.26,13.26S277.29,222.25,276.52,223s19,17.19,18.09,18.09-22.4-18.82-23.44-17.78,24.61,22.27,23.44,23.44c-1.33,1.33-28-25-29.33-23.67s30.8,27.86,29.33,29.33c-1.66,1.66-34.3-32-36-30.31s37.77,34.17,36,36c-2.06,2.06-41.86-40.32-43.92-38.26s46.14,41.74,43.94,43.94c-2.65,2.65-53.09-52.73-55.73-50.08-1.22,1.21,25.47,23.05,24.26,24.26" transform="translate(-6.94 -39.82)"/><path class="cls-4" d="M148.4,207.71s.7.64.67.67c-.23.23-6.25-1.06-6.48-.83-.08.08,1.48,1.35,1.41,1.42-.3.31-7.91-2.87-8.22-2.56-.07.06,1.41,1.27,1.34,1.33" transform="translate(-6.94 -39.82)"/><path class="cls-4" d="M272.38,207.71s.71.64.67.67c-.23.23-6.25-1.06-6.48-.83-.07.08,1.49,1.35,1.42,1.42-.31.31-7.92-2.87-8.23-2.56-.06.06,1.41,1.27,1.34,1.33" transform="translate(-6.94 -39.82)"/><path class="cls-5" d="M247.42,234c-.14.14,2.88,2.61,2.74,2.74l-2.73,2.92c-.14.14,2.89,2.62,2.75,2.75l-2.74,2.92c-.14.14,2.89,2.62,2.75,2.76s-2.6,2.76-2.75,2.9,2.91,2.63,2.77,2.77-3.85,1.5-4,1.65,2.18,2,2.08,2.08" transform="translate(-6.94 -39.82)"/><path class="cls-5" d="M240.84,234c-.18.18,3.83,3.46,3.65,3.65s-3.49,1.87-3.64,2,3.83,3.47,3.65,3.65-3.49,1.87-3.64,2,3.83,3.47,3.65,3.65-3.5,1.87-3.64,2,3.83,3.47,3.65,3.65-4.72.6-4.89.77,2.18,2,2.08,2.08" transform="translate(-6.94 -39.82)"/><path class="cls-5" d="M234.26,234c-.18.18,3.83,3.46,3.65,3.65s-3.49,1.87-3.64,2,3.83,3.47,3.65,3.65-3.49,1.87-3.64,2,3.83,3.47,3.65,3.65-3.5,1.87-3.64,2,3.83,3.47,3.65,3.65-4.72.6-4.89.77,2.18,2,2.08,2.08" transform="translate(-6.94 -39.82)"/><path class="cls-5" d="M227.68,234c-.18.18,3.83,3.46,3.65,3.64s-3.49,1.88-3.64,2,3.83,3.47,3.65,3.65-3.49,1.87-3.64,2,3.83,3.46,3.64,3.65-3.49,1.87-3.63,2,3.83,3.47,3.64,3.65-4.71.6-4.88.77,2.19,2,2.09,2.09" transform="translate(-6.94 -39.82)"/><path class="cls-5" d="M221.1,234c-.18.18,3.83,3.46,3.65,3.65s-3.49,1.87-3.64,2,3.83,3.46,3.65,3.64-3.5,1.87-3.64,2,3.83,3.46,3.64,3.65-3.49,1.87-3.64,2,3.84,3.47,3.65,3.65-4.71.6-4.89.77,2.2,2,2.1,2.09" transform="translate(-6.94 -39.82)"/><path class="cls-5" d="M214.52,234c-.18.18,3.83,3.46,3.65,3.65s-3.49,1.87-3.64,2,3.83,3.46,3.65,3.64-3.5,1.87-3.64,2,3.83,3.46,3.64,3.65-3.49,1.87-3.64,2,3.84,3.47,3.65,3.65-4.71.6-4.89.77,2.21,2,2.1,2.1" transform="translate(-6.94 -39.82)"/><path class="cls-5" d="M207.94,234c-.18.18,3.83,3.46,3.65,3.65s-3.49,1.87-3.64,2,3.83,3.46,3.65,3.64-3.5,1.87-3.64,2,3.83,3.47,3.65,3.65-3.5,1.87-3.65,2,3.84,3.47,3.66,3.66-4.72.59-4.9.76,2.21,2,2.11,2.1" transform="translate(-6.94 -39.82)"/><path class="cls-5" d="M201.36,234c-.18.18,3.83,3.46,3.65,3.65s-3.49,1.87-3.64,2,3.83,3.46,3.65,3.64-3.49,1.87-3.64,2,3.83,3.46,3.65,3.65-3.5,1.87-3.64,2,3.83,3.47,3.65,3.65-4.72.6-4.89.77,2.21,2,2.1,2.11" transform="translate(-6.94 -39.82)"/><path class="cls-5" d="M194.78,234c-.18.18,3.83,3.46,3.65,3.65s-3.49,1.87-3.64,2,3.83,3.46,3.65,3.64-3.49,1.87-3.64,2,3.83,3.46,3.65,3.65-3.5,1.87-3.64,2,3.83,3.47,3.65,3.65-4.72.6-4.89.77,2.21,2,2.11,2.11" transform="translate(-6.94 -39.82)"/><path class="cls-5" d="M188.2,234c-.18.18,3.83,3.46,3.65,3.65s-3.49,1.87-3.64,2,3.83,3.47,3.65,3.65-3.5,1.87-3.64,2,3.83,3.46,3.65,3.65-3.5,1.87-3.64,2,3.83,3.47,3.65,3.65-4.72.6-4.89.77,2.22,2,2.11,2.12" transform="translate(-6.94 -39.82)"/><path class="cls-5" d="M181.62,234c-.18.18,3.83,3.46,3.65,3.65s-3.49,1.87-3.64,2,3.83,3.46,3.65,3.64-3.49,1.87-3.64,2,3.83,3.46,3.65,3.65-3.5,1.87-3.64,2,3.83,3.47,3.65,3.65-4.72.6-4.89.77,2.22,2,2.12,2.12" transform="translate(-6.94 -39.82)"/><path class="cls-5" d="M175,234c-.18.18,3.83,3.46,3.65,3.65s-3.49,1.87-3.64,2,3.83,3.46,3.64,3.64-3.49,1.87-3.63,2,3.83,3.46,3.64,3.65-3.49,1.87-3.64,2,3.84,3.47,3.65,3.65-4.71.6-4.89.77,2.24,2,2.13,2.13" transform="translate(-6.94 -39.82)"/><path class="cls-5" d="M249.45,231.11s.74.67.71.71c-.23.23-6.14-.93-6.37-.71s2.18,2,2.07,2.07c-.28.29-7.44-2.35-7.72-2.07-.11.1,2.15,1.95,2.05,2.06-.28.28-7.43-2.34-7.71-2.06s5.7,5.16,5.43,5.43c-.44.44-10.65-5.86-11.09-5.43-.22.23,4.73,4.28,4.5,4.5-.39.4-9.76-4.89-10.15-4.5-.18.18,3.75,3.4,3.57,3.58-.35.35-8.88-3.93-9.23-3.58-.13.14,2.79,2.53,2.66,2.66-.31.31-8-3-8.32-2.66-.1.11,2.2,2,2.09,2.1-.28.28-7.46-2.38-7.75-2.1-.1.11,2.18,2,2.08,2.08-.28.28-7.45-2.36-7.73-2.08-.1.1,2.16,2,2.05,2.06-.28.28-7.43-2.34-7.71-2.06s5.82,5.27,5.55,5.55c-.45.44-10.76-6-11.21-5.55-.23.23,4.86,4.39,4.63,4.62-.4.4-9.88-5-10.28-4.62-.19.19,3.88,3.52,3.7,3.7-.36.36-9-4.05-9.36-3.7-.14.14,2.91,2.64,2.77,2.78-.31.31-8.11-3.09-8.43-2.78-.1.11,2.2,2,2.1,2.1s-2.86,2.51-3,2.65,2.9,2.63,2.76,2.77l-2.75,2.9c-.14.14,2.9,2.63,2.76,2.76s-2.6,2.77-2.75,2.91,2.9,2.62,2.76,2.76l-2.74,2.91c-.23.23,4.84,4.39,4.61,4.62" transform="translate(-6.94 -39.82)"/><path class="cls-6" d="M174.27,233.24s.75.68.71.71l-2.81,2.85c-.14.14,3,2.67,2.82,2.81l-2.81,2.85c-.14.14,3,2.68,2.82,2.82s-2.67,2.7-2.81,2.85,2.95,2.67,2.81,2.81-2.66,2.71-2.81,2.85,1.61,1.45,1.53,1.53" transform="translate(-6.94 -39.82)"/><path class="cls-6" d="M180.86,233.24s.74.68.7.71l-2.81,2.84c-.14.14,3,2.68,2.82,2.82l-2.81,2.85c-.14.14,3,2.68,2.82,2.82l-2.82,2.84c-.14.14,3,2.68,2.83,2.82l-2.82,2.85c-.07.07,1.61,1.45,1.53,1.53" transform="translate(-6.94 -39.82)"/><path class="cls-6" d="M187.43,233.24s.75.68.71.71l-2.81,2.84c-.14.15,3,2.68,2.82,2.82l-2.81,2.85c-.14.14,3,2.68,2.82,2.82l-2.81,2.84c-.15.15,3,2.68,2.81,2.82l-2.81,2.85c-.07.08,1.61,1.45,1.53,1.53" transform="translate(-6.94 -39.82)"/><path class="cls-6" d="M194,233.24s.75.68.71.71l-2.81,2.84c-.14.15,3,2.68,2.82,2.82l-2.81,2.85c-.14.14,3,2.68,2.82,2.82l-2.81,2.84c-.14.15,3,2.68,2.82,2.82s-2.68,2.71-2.82,2.85,1.61,1.45,1.53,1.53" transform="translate(-6.94 -39.82)"/><path class="cls-6" d="M200.6,233.24s.74.68.7.71l-2.81,2.85c-.14.14,3,2.67,2.82,2.81l-2.81,2.85c-.14.14,3,2.68,2.82,2.82l-2.81,2.84c-.14.15,3,2.68,2.82,2.82s-2.67,2.71-2.82,2.85,1.61,1.45,1.53,1.53" transform="translate(-6.94 -39.82)"/><path class="cls-6" d="M207.17,233.24s.75.68.71.71l-2.81,2.85c-.14.14,3,2.67,2.82,2.81l-2.81,2.85c-.14.14,3,2.68,2.82,2.82s-2.67,2.7-2.81,2.85,2.95,2.67,2.81,2.81-2.66,2.71-2.81,2.85,1.61,1.45,1.53,1.53" transform="translate(-6.94 -39.82)"/><path class="cls-6" d="M213.75,233.24s.75.68.71.71l-2.81,2.85c-.14.14,3,2.67,2.82,2.81l-2.81,2.85c-.14.14,3,2.68,2.82,2.82s-2.67,2.7-2.81,2.85,3,2.67,2.81,2.81-2.66,2.71-2.81,2.85,1.61,1.45,1.53,1.53" transform="translate(-6.94 -39.82)"/><path class="cls-6" d="M220.33,233.24s.75.68.71.71l-2.81,2.84c-.14.15,3,2.68,2.82,2.82l-2.81,2.85c-.14.14,3,2.68,2.82,2.82s-2.67,2.7-2.82,2.84,3,2.68,2.82,2.82l-2.81,2.85c-.07.08,1.61,1.45,1.53,1.53" transform="translate(-6.94 -39.82)"/><path class="cls-6" d="M226.92,233.24s.74.68.7.71l-2.81,2.84c-.14.14,3,2.68,2.82,2.82l-2.81,2.85c-.14.14,3,2.68,2.82,2.82s-2.67,2.7-2.82,2.84,3,2.68,2.83,2.82-2.68,2.71-2.82,2.85,1.61,1.45,1.53,1.53" transform="translate(-6.94 -39.82)"/><path class="cls-6" d="M233.5,233.24s.74.68.7.71l-2.81,2.84c-.14.14,3,2.68,2.82,2.82l-2.81,2.85c-.14.14,3,2.68,2.82,2.82s-2.67,2.7-2.82,2.84,3,2.68,2.83,2.82l-2.82,2.85c-.07.07,1.61,1.45,1.53,1.53" transform="translate(-6.94 -39.82)"/><path class="cls-6" d="M240.08,233.24s.74.68.7.71L238,236.8c-.14.14,3,2.67,2.82,2.81L238,242.46c-.14.14,3,2.68,2.82,2.82L238,248.12c-.14.15,3,2.68,2.82,2.82s-2.67,2.71-2.82,2.85,1.61,1.45,1.53,1.53" transform="translate(-6.94 -39.82)"/><path class="cls-6" d="M246.65,233.24s.75.68.71.71l-2.81,2.85c-.14.14,3,2.67,2.82,2.81l-2.81,2.85c-.14.14,3,2.68,2.82,2.82l-2.81,2.85c-.14.14,3,2.67,2.81,2.81s-2.66,2.71-2.81,2.85,1.61,1.45,1.53,1.53" transform="translate(-6.94 -39.82)"/><path class="cls-5" d="M139.76,259.56s.59.54.56.57" transform="translate(-6.94 -39.82)"/><path class="cls-5" d="M138.49,257.25c-.1.1,2.11,1.91,2,2" transform="translate(-6.94 -39.82)"/><path class="cls-3" d="M138.2,258.06c-.07.07,1.55,1.4,1.48,1.48" transform="translate(-6.94 -39.82)"/><path class="cls-5" d="M279.7,259.56s.59.54.56.57" transform="translate(-6.94 -39.82)"/><path class="cls-5" d="M278.43,257.25c-.1.1,2.11,1.91,2,2" transform="translate(-6.94 -39.82)"/><path class="cls-3" d="M278.13,258.06c-.07.08,1.56,1.41,1.49,1.48" transform="translate(-6.94 -39.82)"/><path class="cls-5" d="M162.44,243c-.09.09,1.87,1.69,1.78,1.78s-2.5,2.87-2.64,3,1.13,1,1.08,1.08-4.58.73-4.75.91,1.37,1.23,1.3,1.3" transform="translate(-6.94 -39.82)"/><path class="cls-5" d="M160,238.29c-.19.18,3.88,3.51,3.7,3.7-.35.34-8.82-3.86-9.17-3.51,0,.05,1.14,1,1.08,1.08s-3.85,1.5-4,1.65,1.11,1,1.06,1.06-1.59,3.77-1.74,3.92,5.11,4.62,4.86,4.86" transform="translate(-6.94 -39.82)"/><path class="cls-3" d="M158.64,240.68c-.13.13,2.74,2.48,2.61,2.61s-6.73-1.58-7-1.33,6,5.41,5.69,5.69" transform="translate(-6.94 -39.82)"/><path class="cls-7" d="M161.35,243.33c-.06.06,1.28,1.16,1.22,1.22s-2.37,3-2.52,3.15.74.66.71.7" transform="translate(-6.94 -39.82)"/><path class="cls-7" d="M159,239.61c-.17.17,3.47,3.14,3.3,3.31s-7.79-2.74-8.09-2.44c0,0,.77.7.73.74s-2.53,2.84-2.67,3,1.14,1,1.08,1.08" transform="translate(-6.94 -39.82)"/><path class="cls-5" d="M266,243c-.09.09,1.87,1.69,1.78,1.78s-2.5,2.87-2.65,3,1.14,1,1.09,1.08-4.58.73-4.75.91,1.37,1.23,1.3,1.3" transform="translate(-6.94 -39.82)"/><path class="cls-5" d="M263.55,238.29c-.19.18,3.88,3.51,3.7,3.7-.35.34-8.82-3.86-9.17-3.51-.05.05,1.13,1,1.08,1.08s-3.85,1.5-4,1.65,1.11,1,1.06,1.06-1.59,3.77-1.74,3.92,5.11,4.62,4.86,4.86" transform="translate(-6.94 -39.82)"/><path class="cls-3" d="M262.18,240.68c-.13.13,2.74,2.48,2.61,2.61s-6.73-1.58-7-1.32,6,5.4,5.69,5.68" transform="translate(-6.94 -39.82)"/><path class="cls-7" d="M264.89,243.33c-.06.06,1.28,1.16,1.22,1.22s-2.37,3-2.52,3.15.74.66.71.7" transform="translate(-6.94 -39.82)"/><path class="cls-7" d="M262.55,239.61c-.17.17,3.47,3.14,3.3,3.31s-7.79-2.74-8.09-2.44c0,0,.77.7.73.74s-2.53,2.84-2.67,3,1.14,1,1.08,1.08" transform="translate(-6.94 -39.82)"/><path class="cls-5" d="M132.48,275c-.44.45,9.38,8.48,8.94,8.93" transform="translate(-6.94 -39.82)"/><path class="cls-5" d="M154.62,281.57c-.54.53,11.22,10.16,10.69,10.69s-10.42-5.61-10.84-5.18c-.19.19,4,3.59,3.78,3.78" transform="translate(-6.94 -39.82)"/><path class="cls-5" d="M176.85,281.74c-.68.68,14.29,12.93,13.61,13.61s-13.3-8.78-13.87-8.21c-.38.38,8,7.22,7.6,7.6s-9.91-5.05-10.31-4.65c-.2.2,4.25,3.83,4,4s-8.57-3.6-8.91-3.26c-.11.11,2.39,2.17,2.28,2.28" transform="translate(-6.94 -39.82)"/><path class="cls-5" d="M199,281.75c-.71.71,14.91,13.49,14.2,14.2s-13.87-9.41-14.47-8.81c-.44.44,9.32,8.43,8.88,8.87s-11.13-6.38-11.59-5.92c-.29.29,6.15,5.56,5.86,5.85s-10.31-5.49-10.73-5.07c-.23.22,4.71,4.27,4.49,4.49" transform="translate(-6.94 -39.82)"/><path class="cls-5" d="M243.94,278c-.37.38,7.81,7.07,7.44,7.44s-7.15-2-7.42-1.76,7.81,7.06,7.43,7.43-7.14-2-7.41-1.75,3.9,3.52,3.71,3.71" transform="translate(-6.94 -39.82)"/><path class="cls-5" d="M278.75,278c-.32.31,6.67,6,6.35,6.35s-6.09-.88-6.31-.66,2.1,1.9,2,2" transform="translate(-6.94 -39.82)"/><path class="cls-5" d="M287.83,275c-.32.32,6.67,6,6.35,6.35" transform="translate(-6.94 -39.82)"/><path class="cls-5" d="M294,268.63s.74.67.71.71c-.23.22-6.14-.94-6.37-.71s6.7,6.05,6.38,6.37c-.48.48-11.55-6.85-12-6.37s12.64,11.44,12,12c-.76.76-16.94-12.8-17.7-12s14.51,13.12,13.82,13.82c-.85.84-18.63-14.67-19.48-13.82s16,14.48,15.25,15.24c-.92.92-20-16.16-20.9-15.24-.44.43,9.09,8.22,8.65,8.65-.59.6-13.72-9.24-14.31-8.65-.43.43,9.1,8.23,8.67,8.67-.59.59-13.73-9.26-14.33-8.67-.43.43,9.12,8.24,8.68,8.68-.59.59-13.74-9.27-14.33-8.68-.44.43,9.12,8.26,8.69,8.69-.59.59-13.76-9.29-14.35-8.69-.44.43,9.14,8.27,8.71,8.7-.6.6-13.77-9.3-14.37-8.7s14.67,13.27,14,14c-.86.85-18.78-14.82-19.63-14-.44.43,9.08,8.22,8.65,8.65-.59.59-13.72-9.24-14.31-8.65-.43.43,9.1,8.23,8.67,8.66-.6.6-13.74-9.25-14.33-8.66-.43.43,9.11,8.24,8.68,8.68-.59.59-13.74-9.27-14.33-8.68-.44.43,9.12,8.25,8.69,8.69-.6.59-13.76-9.29-14.35-8.69-.44.43,9.14,8.27,8.7,8.7-.59.6-13.76-9.3-14.36-8.7s13.76,12.45,13.11,13.1c-.81.81-18-13.91-18.77-13.1s19.72,17.84,18.79,18.78c-1.09,1.09-23.35-19.87-24.44-18.78s25.68,23.23,24.45,24.45c-1.37,1.38-28.74-25.82-30.11-24.45-.49.49,10.27,9.29,9.78,9.78s-14.79-10.43-15.44-9.78c-.46.46,9.65,8.73,9.19,9.19-.61.61-14.23-9.81-14.84-9.19s12.29,11.12,11.7,11.7c-.74.74-16.62-12.44-17.36-11.7s17.07,15.44,16.26,16.25c-1,1-21-17.22-21.92-16.25-.46.46,9.73,8.8,9.27,9.26-.63.62-14.3-9.88-14.92-9.26-.47.47,9.82,8.88,9.35,9.35-.62.63-14.39-10-15-9.35s12.62,11.42,12,12c-.75.76-16.92-12.78-17.68-12s17.68,16,16.84,16.84c-1,1-21.5-17.84-22.49-16.84-.45.45,9.4,8.5,9,8.95-.61.61-14-9.56-14.61-8.95s10,9,9.52,9.52c-.63.63-14.54-10.16-15.18-9.52s13,11.72,12.34,12.34c-.77.77-17.22-13.11-18-12.34-.26.25,5.4,4.88,5.14,5.14s-7.35-2.25-7.63-2c-.66.66,13.89,12.57,13.23,13.23s-12.67-8.09-13.2-7.55c-.25.25,5.13,4.65,4.89,4.89" transform="translate(-6.94 -39.82)"/><path class="cls-7" d="M176.48,141.9c-.13.13,2.75,2.48,2.62,2.61s-5.72-.48-5.93-.27c-.57.57,11.94,10.8,11.37,11.37s-14.08-9.64-14.69-9,12.92,11.69,12.31,12.31-15-10.62-15.62-10,12,10.88,11.45,11.45-14.15-9.72-14.76-9.11,11.13,10.07,10.6,10.6-12.94-8.38-13.49-7.83,9.79,8.85,9.32,9.32" transform="translate(-6.94 -39.82)"/><path class="cls-7" d="M127.64,147.24c-.21.21,4.53,4.09,4.31,4.31-.67.67-15.28-11-15.95-10.3s14.34,13,13.66,13.66-15.47-11.17-16.15-10.49,14.55,13.16,13.85,13.85-15.42-11.12-16.1-10.44,14.31,12.95,13.63,13.63-14.81-10.45-15.46-9.8c-.15.16,3.33,3,3.17,3.16" transform="translate(-6.94 -39.82)"/><path class="cls-7" d="M148.83,187.33s.86.78.82.82c-.27.28-7.29-2.18-7.57-1.91s7.79,7,7.42,7.42c-.52.51-12.2-7.57-12.71-7s13.18,11.92,12.55,12.55-13.33-8.82-13.9-8.25,14.44,13.07,13.75,13.75-14.48-10.08-15.11-9.45,13.14,11.89,12.51,12.51-13.29-8.77-13.86-8.2c-.39.39,8.17,7.39,7.78,7.78s-8.79-3.83-9.13-3.48c-.09.08,1.67,1.52,1.59,1.6" transform="translate(-6.94 -39.82)"/><path class="cls-7" d="M185.89,137.83c-.69.69,14.38,13,13.69,13.7-.24.24-6.56-1.4-6.81-1.16-.42.43,8.87,8,8.45,8.45-.22.23-6.11-.9-6.33-.67s7.3,6.61,7,6.95-5.94-.72-6.15-.5,6.39,5.79,6.09,6.09-5.86-.63-6.08-.42,5.85,5.3,5.57,5.57-5.89-.66-6.1-.44,5.49,5,5.23,5.23-6-.76-6.19-.54,5.15,4.66,4.9,4.91-6-.78-6.21-.56,4.88,4.42,4.65,4.65-6.1-.89-6.33-.67,4.79,4.33,4.56,4.56-6.28-1.08-6.51-.85,4.7,4.25,4.48,4.47-6.42-1.23-6.66-1,4.59,4.15,4.37,4.36-6.51-1.34-6.76-1.1,4.53,4.1,4.32,4.32-6.74-1.58-7-1.33,4.53,4.1,4.31,4.31-7-1.82-7.21-1.56,4.53,4.1,4.31,4.32-7.14-2-7.41-1.76,4.58,4.15,4.36,4.36-7.39-2.29-7.67-2,4.6,4.16,4.38,4.38-7.71-2.64-8-2.35,4.69,4.25,4.47,4.48-8-3-8.35-2.7,4.88,4.42,4.65,4.65-8.47-3.47-8.8-3.14,5.06,4.58,4.82,4.82-8.93-4-9.28-3.62,5.25,4.75,5,5-9.46-4.57-9.84-4.19,5.56,5,5.29,5.29c-.41.42-10.22-5.39-10.64-5s6.06,5.48,5.77,5.77c-.47.47-11.29-6.57-11.75-6.1-.32.32,6.72,6.09,6.4,6.41-.55.55-12.93-8.38-13.48-7.83-.38.38,7.93,7.18,7.55,7.55-.7.7-15.81-11.55-16.51-10.85-.49.49,10.31,9.33,9.82,9.82" transform="translate(-6.94 -39.82)"/><path class="cls-7" d="M179.91,123.2c-.52.51,10.85,9.82,10.34,10.33-1,1-22.23-18.62-23.26-17.59-1.54,1.55,32.5,29.4,30.95,30.95-1.83,1.83-37.47-35.47-39.3-33.65-.51.51,10.68,9.67,10.18,10.18-.72.72-16.19-12-16.91-11.25-.38.38,8.06,7.29,7.68,7.67-.56.56-13.08-8.53-13.64-8-.32.32,6.82,6.17,6.49,6.49-.47.47-11.39-6.68-11.86-6.21-.29.29,6.1,5.52,5.81,5.81s-10.32-5.5-10.74-5.08,5.65,5.11,5.38,5.38-9.55-4.66-9.93-4.28,5.31,4.81,5.05,5.06-9-4-9.3-3.65,5.06,4.58,4.82,4.82-8.46-3.45-8.79-3.12,4.85,4.38,4.62,4.61-8.08-3-8.39-2.74,4.72,4.28,4.49,4.5-7.7-2.64-8-2.34,4.6,4.16,4.38,4.37-7.38-2.28-7.66-2,4.55,4.12,4.33,4.34-7.18-2.08-7.45-1.8,4.55,4.12,4.34,4.33-7-1.81-7.21-1.55,4.5,4.08,4.29,4.29-6.71-1.55-7-1.3,4.5,4.07,4.28,4.28-6.56-1.39-6.8-1.14,4.61,4.17,4.39,4.39-6.4-1.22-6.64-1,4.67,4.22,4.45,4.44-6.25-1-6.48-.82,4.74,4.29,4.51,4.51-6.13-.93-6.36-.7,4.91,4.44,4.68,4.68-6-.79-6.22-.57,5.14,4.65,4.89,4.9-5.91-.69-6.13-.48,5.41,4.89,5.15,5.15-5.9-.68-6.12-.46,5.83,5.28,5.55,5.55-5.89-.66-6.1-.45,6.38,5.78,6.08,6.09-5.92-.7-6.13-.48,7.22,6.54,6.88,6.88-6.07-.86-6.29-.63c-.42.41,8.67,7.85,8.26,8.26-.24.24-6.42-1.24-6.66-1-.65.65,13.61,12.31,13,13-.35.35-8.93-4-9.29-3.63-1.24,1.24,26.09,23.6,24.85,24.84" transform="translate(-6.94 -39.82)"/><path class="cls-5" d="M149.72,188.12c-1.1,1.09,23,20.79,21.88,21.88s-21.07-17.35-22-16.38S168.9,211.11,168,212s-17.77-13.72-18.57-12.92S164.73,213,164,213.72s-14.13-9.71-14.75-9.09,11,10,10.49,10.48-10.48-5.68-10.91-5.25,6.63,6,6.31,6.31c-.53.54-12.65-8.06-13.18-7.53s8.59,7.78,8.18,8.19c-.63.62-14.42-10-15-9.4-.48.48,10,9,9.52,9.53" transform="translate(-6.94 -39.82)"/><path class="cls-5" d="M158.61,161.6c-1.52,1.53,32,29,30.53,30.53-1.32,1.31-27.7-24.68-29-23.36S188.29,194.26,187,195.6,160.29,172.07,159,173.33s26.8,24.25,25.53,25.53-26.51-23.36-27.77-22.1,26.35,23.83,25.09,25.08S155,178,153.69,179.31s26.55,24,25.28,25.28-28-25-29.29-23.64,27.49,24.88,26.18,26.19C174.4,208.59,145.48,179.5,144,181s30,27.1,28.53,28.52" transform="translate(-6.94 -39.82)"/><path class="cls-5" d="M132,151.51c-.31.31,6.5,5.88,6.19,6.19s-8.16-3.13-8.47-2.82,6.16,5.58,5.87,5.87-7.86-2.8-8.16-2.5,6.73,6.1,6.41,6.42-8.37-3.37-8.69-3,9,8.13,8.55,8.56c-.91.91-19.85-16-20.76-15.11-1.58,1.58,33.05,29.91,31.47,31.48" transform="translate(-6.94 -39.82)"/><path class="cls-5" d="M179,142.48c-.8.79,16.6,15,15.81,15.82-.33.33-8.55-3.57-8.88-3.23-.49.48,10.15,9.18,9.66,9.66s-11.46-6.75-11.94-6.28,12.54,11.34,11.94,11.94-15.43-11.13-16.11-10.45S195.8,174.72,195,175.5s-18.88-14.93-19.74-14.07,19.7,17.82,18.76,18.75-21.91-18.28-22.93-17.27,22.7,20.53,21.62,21.61S168.11,163.24,167,164.4s25.31,22.9,24.11,24.1" transform="translate(-6.94 -39.82)"/><path class="cls-5" d="M176.18,128.22c-.47.47,9.89,8.94,9.42,9.41-1,1-21.12-17.4-22.09-16.43-1.45,1.46,30.56,27.65,29.1,29.1-1.71,1.71-35.2-33-36.91-31.25-1.09,1.1,23,20.83,21.93,21.92-1.29,1.29-27.1-24-28.39-22.72s26.33,23.82,25.08,25.07c-1.41,1.41-29.35-26.49-30.75-25.09S172.38,144.3,171,145.67s-31.07-28.4-32.57-26.91,30.73,27.8,29.27,29.26-32.4-29.86-34-28.3,32.18,29.12,30.65,30.65-33.39-31-35-29.34,33.28,30.11,31.69,31.7-34-31.67-35.67-30c-2,2,41.2,37.28,39.24,39.24s-40.94-39.3-42.95-37.29c-1.57,1.58,33.12,30,31.54,31.54s-33.4-31-35-29.36c-1.39,1.39,29.14,26.37,27.75,27.76s-29.6-26.78-31-25.37,27.78,25.14,26.46,26.46-28.1-25.12-29.44-23.78c-.64.64,13.44,12.16,12.8,12.8s-14.9-10.55-15.55-9.9c-.23.23,4.8,4.35,4.57,4.58s-6.86-1.72-7.12-1.47,5.06,4.58,4.82,4.82-6.9-1.76-7.16-1.5,5.1,4.61,4.86,4.85-6.65-1.48-6.89-1.23,4.81,4.36,4.58,4.59-6.13-.93-6.36-.71c-1.83,1.84,38.51,34.84,36.68,36.68S100.82,151.13,99,152.9s38.57,34.89,36.73,36.73-36.15-34-37.91-32.25,38.39,34.73,36.56,36.55S98.8,160.51,97.07,162.24s37.8,34.2,36,36-34.63-32.33-36.31-30.65,36.7,33.2,35,34.95c-1.59,1.6-33-30.5-34.57-28.91-2.15,2.15,45.19,40.88,43,43-1.94,1.94-39.63-37.86-41.57-35.92-1.72,1.72,36.17,32.73,34.45,34.45-1.42,1.41-29.52-26.69-30.94-25.28C101,191,125,210.6,123.89,211.68" transform="translate(-6.94 -39.82)"/><path class="cls-7" d="M154.83,164c-.26.26,5.39,4.88,5.13,5.14s-4.34,1-4.51,1.15,3.51,3.17,3.34,3.34-5.19.08-5.38.27,3.19,2.88,3,3-6.2-1-6.42-.77,3.41,3.09,3.25,3.26c-.32.31-8.21-3.19-8.53-2.87s4.56,4.12,4.35,4.34" transform="translate(-6.94 -39.82)"/><path class="cls-7" d="M153.19,156.3c-.26.26,5.5,5,5.24,5.24-.5.5-12-7.32-12.47-6.82-.28.28,5.89,5.33,5.61,5.61s-9.77-4.9-10.17-4.51c-.17.17,3.57,3.23,3.4,3.4s-6.56-1.39-6.81-1.15,3.22,2.91,3.07,3.07-5.4-.14-5.6.05,3.37,3.06,3.21,3.22-4.63.68-4.8.85,4.45,4,4.23,4.24-4,1.32-4.17,1.48c-.49.49,10.31,9.32,9.81,9.81" transform="translate(-6.94 -39.82)"/><path class="cls-3" d="M148,162.16c-.37.37,7.82,7.08,7.45,7.45s-10.89-6.13-11.34-5.69,10,9.05,9.52,9.52-11.57-6.87-12.05-6.39,9.28,8.4,8.83,8.84" transform="translate(-6.94 -39.82)"/><path class="cls-3" d="M150.77,160c-.2.2,4.1,3.72,3.91,3.92-.4.39-9.83-5-10.23-4.57-.08.08,1.71,1.54,1.63,1.62s-5,.25-5.23.44,1.35,1.22,1.29,1.28-3.38,2-3.53,2.13,1.2,1.08,1.14,1.14-1.27,4.07-1.43,4.23c-.31.31,6.49,5.86,6.18,6.17" transform="translate(-6.94 -39.82)"/><path class="cls-7" d="M146.75,161c-.05.06,1.21,1.1,1.16,1.15s-5.13.16-5.32.34,1.46,1.33,1.39,1.4-3.8,1.54-4,1.7,1.52,1.37,1.45,1.44" transform="translate(-6.94 -39.82)"/><path class="cls-7" d="M251.63,147.24c-.22.21,4.52,4.09,4.3,4.31-.67.67-15.28-11-16-10.3s14.34,13,13.66,13.66-15.47-11.17-16.15-10.49,14.55,13.16,13.86,13.85-15.43-11.12-16.1-10.44,14.3,12.95,13.62,13.63-14.81-10.45-15.45-9.8c-.16.16,3.32,3,3.16,3.17" transform="translate(-6.94 -39.82)"/><path class="cls-7" d="M300.46,141.89c-.13.14,2.74,2.48,2.61,2.61s-5.71-.47-5.92-.26c-.57.57,12,10.82,11.39,11.39s-14.09-9.66-14.71-9,12.93,11.69,12.31,12.31-15-10.62-15.62-10,12,10.88,11.45,11.45-14.15-9.73-14.76-9.11,11.13,10.07,10.6,10.6-12.93-8.38-13.49-7.83,9.79,8.85,9.32,9.32" transform="translate(-6.94 -39.82)"/><path class="cls-7" d="M272.81,187.33s.86.78.82.82c-.27.28-7.29-2.18-7.57-1.91s7.79,7,7.42,7.42-12.19-7.57-12.71-7,13.18,11.92,12.56,12.55-13.34-8.82-13.91-8.25,14.44,13.07,13.75,13.76-14.48-10.09-15.11-9.46,13.14,11.89,12.51,12.51-13.29-8.77-13.86-8.2c-.39.38,8.17,7.39,7.78,7.78s-8.79-3.83-9.13-3.48c-.08.08,1.68,1.52,1.59,1.6" transform="translate(-6.94 -39.82)"/><path class="cls-7" d="M309.87,137.83c-.68.69,14.33,13,13.64,13.65-.24.24-6.51-1.35-6.76-1.11-.42.43,8.92,8.07,8.5,8.5-.23.22-6.15-1-6.38-.72s7.32,6.62,7,7-5.95-.74-6.17-.52,6.4,5.79,6.1,6.1-5.87-.64-6.09-.43,5.85,5.29,5.57,5.57-5.89-.66-6.1-.45,5.47,5,5.21,5.22-5.95-.74-6.17-.52,5.17,4.68,4.92,4.93-6-.8-6.23-.58,4.89,4.43,4.66,4.66-6.11-.91-6.34-.68,4.77,4.31,4.54,4.54-6.25-1.06-6.49-.83,4.72,4.27,4.5,4.49-6.44-1.25-6.67-1,4.59,4.16,4.38,4.38-6.53-1.36-6.77-1.12,4.5,4.08,4.28,4.29-6.71-1.55-7-1.3,4.54,4.1,4.32,4.32-7-1.83-7.22-1.57,4.55,4.12,4.33,4.33-7.16-2-7.43-1.77,4.55,4.11,4.33,4.33-7.36-2.26-7.64-2,4.61,4.16,4.39,4.38-7.72-2.65-8-2.35,4.73,4.29,4.51,4.51-8.08-3-8.39-2.73,4.88,4.42,4.65,4.65-8.46-3.47-8.79-3.14,5.05,4.58,4.81,4.82-8.92-4-9.28-3.62,5.25,4.74,5,5-9.46-4.56-9.84-4.18,5.56,5,5.29,5.29c-.41.42-10.22-5.39-10.64-5s6.06,5.48,5.77,5.77c-.47.47-11.28-6.57-11.75-6.1-.32.32,6.72,6.09,6.4,6.41-.55.55-12.93-8.38-13.48-7.83-.37.38,7.93,7.18,7.55,7.55-.7.7-15.81-11.55-16.51-10.85-.49.49,10.32,9.33,9.82,9.82" transform="translate(-6.94 -39.82)"/><path class="cls-7" d="M304.22,123.5c-.5.5,10.51,9.5,10,10-1,1-22.22-18.62-23.25-17.59-1.54,1.55,32.51,29.41,31,31-1.82,1.82-37.37-35.36-39.19-33.54-.51.51,10.64,9.63,10.13,10.13-.72.73-16.23-12-17-11.29-.38.38,8.08,7.31,7.7,7.69-.56.56-13.09-8.55-13.65-8-.32.32,6.83,6.17,6.5,6.5s-11.38-6.67-11.86-6.2c-.29.29,6.09,5.51,5.8,5.8s-10.28-5.47-10.7-5c-.27.27,5.6,5.07,5.33,5.33s-9.52-4.62-9.9-4.24,5.28,4.77,5,5-9-4-9.32-3.66,5.07,4.58,4.83,4.82-8.51-3.51-8.84-3.18,4.9,4.44,4.67,4.67-8.06-3-8.38-2.72,4.7,4.26,4.48,4.48-7.7-2.63-8-2.34,4.58,4.15,4.37,4.37-7.44-2.34-7.72-2.06,4.61,4.17,4.39,4.39-7.17-2-7.44-1.78,4.53,4.1,4.32,4.32-6.94-1.81-7.2-1.55,4.49,4.07,4.28,4.28-6.76-1.6-7-1.34,4.55,4.11,4.33,4.33-6.54-1.38-6.78-1.13,4.59,4.15,4.37,4.37-6.39-1.21-6.63-1,4.66,4.21,4.43,4.43-6.27-1.08-6.5-.85,4.76,4.31,4.53,4.54-6.13-.93-6.36-.71,4.92,4.45,4.68,4.68-6-.76-6.2-.54,5.12,4.63,4.87,4.87-5.92-.7-6.14-.48,5.41,4.89,5.16,5.15-5.91-.69-6.13-.47,5.83,5.28,5.56,5.56-5.9-.68-6.12-.46,6.4,5.78,6.09,6.09-5.91-.69-6.13-.47,7.22,6.53,6.88,6.87-6.08-.86-6.3-.64c-.41.41,8.67,7.85,8.26,8.26-.24.24-6.41-1.23-6.65-1-.64.64,13.52,12.23,12.87,12.87-.35.36-9-4.06-9.36-3.7-1.25,1.26,26.36,23.84,25.1,25.1" transform="translate(-6.94 -39.82)"/><path class="cls-5" d="M273.7,188.12c-1.1,1.09,23,20.79,21.89,21.88s-21.07-17.35-22-16.38S292.88,211.11,292,212s-17.77-13.72-18.57-12.92S288.71,213,288,213.72s-14.13-9.71-14.74-9.09,11,10,10.48,10.48-10.48-5.68-10.91-5.25,6.63,6,6.32,6.31c-.54.54-12.65-8.06-13.19-7.53s8.59,7.78,8.18,8.19c-.62.62-14.42-10-15.05-9.4-.48.48,10,9,9.53,9.53" transform="translate(-6.94 -39.82)"/><path class="cls-5" d="M282.59,161.6c-1.52,1.53,32.05,29,30.53,30.53-1.32,1.31-27.7-24.68-29-23.36s28.17,25.49,26.82,26.83S284.27,172.07,283,173.33s26.8,24.25,25.53,25.53S282,175.5,280.78,176.76s26.34,23.83,25.08,25.08S279,178,277.67,179.31s26.55,24,25.28,25.28-28-25-29.29-23.64,27.49,24.88,26.18,26.19S269.47,179.5,268,181s29.95,27.1,28.52,28.52" transform="translate(-6.94 -39.82)"/><path class="cls-5" d="M256,151.51c-.31.31,6.5,5.88,6.19,6.19s-8.16-3.13-8.47-2.82,6.16,5.58,5.87,5.87-7.86-2.8-8.16-2.5,6.73,6.09,6.41,6.41-8.37-3.36-8.69-3,9,8.13,8.55,8.56c-.91.9-19.85-16-20.76-15.1-1.57,1.57,33.05,29.9,31.48,31.47" transform="translate(-6.94 -39.82)"/><path class="cls-5" d="M303,142.48c-.79.79,16.61,15,15.82,15.81-.34.34-8.56-3.56-8.89-3.23-.49.49,10.15,9.19,9.67,9.67s-11.46-6.75-11.94-6.28,12.53,11.34,11.94,11.94-15.43-11.13-16.11-10.45S319.79,174.72,319,175.5s-18.88-14.93-19.73-14.07S319,179.24,318,180.18s-21.92-18.28-22.93-17.27,22.69,20.53,21.61,21.61-24.63-21.28-25.78-20.12,25.3,22.89,24.1,24.1" transform="translate(-6.94 -39.82)"/><path class="cls-5" d="M300.17,128.22c-.47.47,9.88,8.94,9.41,9.41-1,1-21.11-17.4-22.09-16.43-1.45,1.46,30.56,27.65,29.1,29.1-1.71,1.71-35.19-33-36.9-31.25-1.1,1.1,23,20.83,21.92,21.92-1.29,1.29-27.1-24-28.38-22.72s26.32,23.82,25.07,25.07c-1.4,1.41-29.35-26.49-30.75-25.09S296.37,144.3,295,145.67s-31.07-28.4-32.56-26.91,30.72,27.8,29.26,29.26-32.4-29.86-34-28.3,32.18,29.12,30.65,30.66-33.39-31-35-29.35,33.28,30.11,31.7,31.7-34-31.67-35.68-30c-2,2,41.2,37.28,39.24,39.24s-40.93-39.3-42.94-37.29c-1.58,1.58,33.11,30,31.53,31.54s-33.39-31-35-29.36c-1.39,1.39,29.14,26.37,27.76,27.76s-29.61-26.78-31-25.37,27.77,25.14,26.45,26.46-28.1-25.12-29.44-23.78c-.64.64,13.45,12.16,12.81,12.8s-14.9-10.55-15.56-9.9c-.23.23,4.8,4.35,4.57,4.57s-6.86-1.72-7.12-1.46,5.06,4.58,4.82,4.82-6.9-1.76-7.16-1.5,5.1,4.61,4.86,4.85-6.64-1.48-6.89-1.23,4.81,4.36,4.58,4.59-6.13-.93-6.35-.71c-1.84,1.84,38.5,34.84,36.67,36.68S224.8,151.13,223,152.9s38.55,34.89,36.72,36.72-36.15-34-37.9-32.24,38.37,34.71,36.54,36.54-35.61-33.41-37.34-31.68,37.78,34.18,36,36-34.61-32.31-36.29-30.63,36.68,33.18,34.93,34.93c-1.59,1.59-32.95-30.48-34.54-28.89-2.16,2.15,45.19,40.88,43,43-1.94,1.94-39.63-37.86-41.57-35.92-1.72,1.72,36.17,32.73,34.45,34.45-1.41,1.41-29.52-26.69-30.93-25.28C225,191,249,210.6,247.87,211.68" transform="translate(-6.94 -39.82)"/><path class="cls-7" d="M278.81,164c-.26.26,5.39,4.88,5.13,5.14s-4.34,1-4.51,1.15,3.51,3.17,3.35,3.34-5.2.08-5.39.27,3.19,2.88,3,3-6.19-1-6.42-.77,3.41,3.09,3.25,3.26c-.32.31-8.21-3.19-8.53-2.87s4.57,4.12,4.35,4.34" transform="translate(-6.94 -39.82)"/><path class="cls-7" d="M277.18,156.3c-.26.26,5.49,5,5.23,5.24-.5.5-12-7.32-12.47-6.82-.28.28,5.9,5.34,5.62,5.62s-9.78-4.91-10.17-4.52c-.17.17,3.56,3.23,3.39,3.4s-6.56-1.39-6.8-1.15,3.22,2.91,3.06,3.07-5.4-.15-5.6.05,3.38,3.06,3.22,3.22-4.64.67-4.81.85,4.45,4,4.24,4.23-4,1.33-4.18,1.48c-.49.49,10.31,9.33,9.82,9.82" transform="translate(-6.94 -39.82)"/><path class="cls-3" d="M272,162.16c-.37.37,7.83,7.08,7.45,7.45s-10.89-6.13-11.34-5.69,10,9.05,9.52,9.52-11.57-6.87-12-6.39,9.28,8.4,8.84,8.84" transform="translate(-6.94 -39.82)"/><path class="cls-3" d="M274.75,160c-.2.2,4.1,3.72,3.91,3.91-.4.4-9.83-5-10.22-4.56-.08.08,1.7,1.54,1.62,1.62s-5,.25-5.22.44,1.34,1.22,1.28,1.28-3.38,2-3.53,2.13,1.2,1.08,1.14,1.14-1.27,4.07-1.43,4.23c-.3.31,6.49,5.86,6.18,6.17" transform="translate(-6.94 -39.82)"/><path class="cls-7" d="M270.74,161c-.06.06,1.21,1.1,1.15,1.15s-5.13.16-5.32.34,1.47,1.33,1.4,1.4-3.81,1.54-4,1.7,1.51,1.37,1.44,1.44" transform="translate(-6.94 -39.82)"/><path class="cls-4" d="M241.77,281c-.11.1,2.26,2,2.15,2.15s-2,3.37-2.14,3.52,2.26,2,2.15,2.14-2,3.38-2.14,3.52,1.49,1.35,1.42,1.42" transform="translate(-6.94 -39.82)"/><path class="cls-4" d="M243.2,277.36s.75.68.71.71c-.23.23-6.14-.93-6.37-.71s3.06,2.76,2.91,2.91c-.32.32-8.24-3.23-8.56-2.91-.15.15,3.06,2.77,2.91,2.92-.32.32-8.25-3.24-8.57-2.92-.14.15,3.07,2.78,2.92,2.92-.32.32-8.26-3.24-8.58-2.92-.14.15,3.08,2.79,2.93,2.93s-6.65-1.49-6.89-1.24,2.24,2,2.14,2.14-2,3.38-2.13,3.53,2.25,2,2.14,2.14-2,3.38-2.14,3.52,2.26,2,2.15,2.15" transform="translate(-6.94 -39.82)"/><path class="cls-5" d="M232.36,294.89l0,.05c-.2.21-5.51-.25-5.71-.05,0,0,.52.46.49.49-.22.22-5.93-.71-6.15-.49,0,0,.87.78.83.82" transform="translate(-6.94 -39.82)"/><path class="cls-5" d="M240.05,282.26c-.09.08,1.78,1.61,1.69,1.7s-1.53,3.82-1.68,4,1.78,1.61,1.69,1.7" transform="translate(-6.94 -39.82)"/><path class="cls-5" d="M241,280.33s.74.67.71.71c-.23.22-6.14-.94-6.37-.71-.06.06,1.29,1.17,1.23,1.23-.25.24-6.64-1.48-6.88-1.23-.07.06,1.3,1.17,1.23,1.24-.25.24-6.64-1.49-6.89-1.24-.06.06,1.31,1.18,1.24,1.24-.23.24-6.29-1.1-6.52-.87-.07.07,1.44,1.31,1.37,1.38s-1.2,4.13-1.36,4.29,1.44,1.31,1.37,1.38-1.2,4.13-1.36,4.29,1.44,1.31,1.38,1.38" transform="translate(-6.94 -39.82)"/><path class="cls-3" d="M239.31,281.61s.74.67.71.71c-.23.23-6.14-.94-6.37-.71s6.7,6.06,6.38,6.38c-.48.48-11.55-6.86-12-6.38s12.65,11.45,12,12.05c-.76.76-16.94-12.81-17.7-12.05s13.69,12.39,13,13-14.56-10.17-15.19-9.53c-.49.48,10.2,9.23,9.72,9.72s-9.34-4.42-9.71-4c-.2.2,4.26,3.86,4.06,4.06" transform="translate(-6.94 -39.82)"/><path class="cls-4" d="M276.58,281c-.11.11,2.26,2,2.15,2.15" transform="translate(-6.94 -39.82)"/><path class="cls-4" d="M278,277.36s.74.68.71.71c-.23.23-6.14-.93-6.37-.71s3,2.76,2.91,2.91c-.32.32-8.25-3.23-8.57-2.91-.14.15,3.06,2.77,2.92,2.92-.32.32-8.25-3.24-8.57-2.92-.15.15,3.06,2.78,2.92,2.92-.32.33-8.26-3.24-8.58-2.92-.15.15,3.07,2.79,2.93,2.93s-6.65-1.49-6.9-1.24,2.25,2,2.14,2.14-2,3.38-2.13,3.53,2.25,2,2.14,2.14-2,3.38-2.13,3.53,1.87,1.69,1.78,1.78" transform="translate(-6.94 -39.82)"/><path class="cls-5" d="M274.85,282.26c-.08.09,1.79,1.62,1.7,1.7" transform="translate(-6.94 -39.82)"/><path class="cls-5" d="M275.83,280.33s.75.67.71.71c-.22.22-6.14-.94-6.36-.71-.06.06,1.29,1.17,1.23,1.23-.25.24-6.64-1.48-6.89-1.23-.06.06,1.3,1.17,1.24,1.24-.25.24-6.65-1.49-6.9-1.24-.06.06,1.31,1.18,1.25,1.24-.23.24-6.3-1.1-6.53-.87-.07.07,1.45,1.31,1.38,1.38s-1.21,4.13-1.36,4.29,1.44,1.31,1.37,1.38" transform="translate(-6.94 -39.82)"/><path class="cls-3" d="M274.11,281.61s.75.68.71.71c-.22.23-6.14-.94-6.36-.71s6.16,5.58,5.87,5.87c-.46.46-11.07-6.33-11.53-5.87s7.34,6.64,7,7c-.51.51-12.14-7.5-12.65-7s8.52,7.7,8.11,8.11-9.86-5-10.25-4.6,5.86,5.31,5.58,5.58-5.37-.1-5.57.1c0,0,.93.84.89.88" transform="translate(-6.94 -39.82)"/><path class="cls-7" d="M153.21,282.53c-.09.09,1.95,1.77,1.86,1.86s-2.55,2.83-2.69,3,1.19,1.07,1.13,1.13" transform="translate(-6.94 -39.82)"/><path class="cls-7" d="M150.84,277.92c-.18.19,3.89,3.52,3.71,3.71-.35.34-8.84-3.88-9.18-3.53-.06.06,1.18,1.07,1.12,1.13s-3.91,1.44-4.06,1.59,1.16,1.05,1.1,1.11-1.75,3.6-1.9,3.75,1.93,1.74,1.83,1.84" transform="translate(-6.94 -39.82)"/><path class="cls-3" d="M149.46,280.34c-.13.13,2.74,2.47,2.61,2.6s-6.73-1.57-7-1.32,6,5.41,5.69,5.69" transform="translate(-6.94 -39.82)"/><path class="cls-5" d="M152.16,283c-.06.06,1.29,1.16,1.22,1.22s-2.37,3-2.51,3.15.73.65.69.68" transform="translate(-6.94 -39.82)"/><path class="cls-5" d="M149.82,279.27c-.16.17,3.47,3.14,3.31,3.31s-7.8-2.74-8.1-2.44c0,0,.78.7.74.74s-2.53,2.84-2.67,3,1.13,1,1.08,1.08" transform="translate(-6.94 -39.82)"/><path class="cls-7" d="M175.4,282.61c-.09.09,1.87,1.7,1.78,1.78s-2.5,2.87-2.64,3,1.13,1,1.08,1.09-4.58.73-4.75.91,1.37,1.23,1.3,1.3" transform="translate(-6.94 -39.82)"/><path class="cls-7" d="M173,278c-.18.18,3.88,3.51,3.7,3.69-.35.35-8.82-3.85-9.16-3.5-.06.05,1.13,1,1.08,1.08s-3.86,1.5-4,1.65,1.11,1,1.06,1.06-1.59,3.77-1.74,3.92,5.11,4.62,4.87,4.86" transform="translate(-6.94 -39.82)"/><path class="cls-3" d="M171.6,280.33c-.13.14,2.74,2.48,2.61,2.61s-6.73-1.57-7-1.32,6,5.41,5.69,5.69" transform="translate(-6.94 -39.82)"/><path class="cls-5" d="M174.31,283c-.06.06,1.28,1.16,1.22,1.22s-2.37,3-2.51,3.14.73.67.7.71" transform="translate(-6.94 -39.82)"/><path class="cls-5" d="M172,279.27c-.17.17,3.47,3.14,3.3,3.31s-7.79-2.74-8.09-2.44c0,0,.77.7.74.74s-2.54,2.84-2.68,3,1.14,1,1.08,1.08" transform="translate(-6.94 -39.82)"/><path class="cls-7" d="M197.54,282.61c-.09.09,1.87,1.69,1.79,1.78s-2.51,2.87-2.65,3,1.13,1,1.08,1.09-4.58.73-4.75.91,1.37,1.23,1.3,1.3" transform="translate(-6.94 -39.82)"/><path class="cls-7" d="M195.11,278c-.18.18,3.89,3.51,3.7,3.7-.34.34-8.81-3.86-9.16-3.51-.06.05,1.13,1,1.08,1.08s-3.85,1.5-4,1.65,1.12,1,1.06,1.06-1.59,3.77-1.74,3.92,5.11,4.62,4.87,4.86" transform="translate(-6.94 -39.82)"/><path class="cls-3" d="M193.75,280.34c-.13.13,2.74,2.48,2.61,2.61s-6.73-1.58-7-1.33,6,5.41,5.69,5.7" transform="translate(-6.94 -39.82)"/><path class="cls-5" d="M196.45,283c-.06.06,1.28,1.16,1.22,1.22s-2.37,3-2.51,3.15.74.66.7.7" transform="translate(-6.94 -39.82)"/><path class="cls-5" d="M194.11,279.27c-.16.17,3.47,3.14,3.31,3.31s-7.8-2.74-8.1-2.44c0,0,.78.7.74.74s-2.53,2.84-2.67,3,1.13,1,1.08,1.08" transform="translate(-6.94 -39.82)"/><path class="cls-3" d="M199.09,295.44s.45.41.43.43c-.22.22-5.87-.64-6.09-.43l.11.11" transform="translate(-6.94 -39.82)"/><path class="cls-7" d="M287.12,275.08s.47.43.45.45" transform="translate(-6.94 -39.82)"/><path class="cls-7" d="M286,273.23s.85.76.81.8" transform="translate(-6.94 -39.82)"/><path class="cls-3" d="M285.88,273.9c-.06.06,1.22,1.11,1.16,1.17" transform="translate(-6.94 -39.82)"/><path class="cls-7" d="M131.77,275.08s.47.43.45.45" transform="translate(-6.94 -39.82)"/><path class="cls-7" d="M130.65,273.23s.86.77.82.81" transform="translate(-6.94 -39.82)"/><path class="cls-3" d="M130.53,273.9c-.06.06,1.23,1.11,1.17,1.17" transform="translate(-6.94 -39.82)"/><path class="cls-8" d="M85.79,326.77c-.05.05,1.15,1,1.09,1.09s-1.43,3.91-1.59,4.06l0,0c-.15.16-1.43,3.92-1.59,4.07l0,0" transform="translate(-6.94 -39.82)"/><path class="cls-8" d="M74.44,277.73c-.07.07,1.5,1.36,1.43,1.43-.67.67-15.29-11-16-10.3S74.69,282.23,74,282.94c-1.49,1.48-30.9-28.22-32.39-26.73s32,29,30.51,30.5-29-26.06-30.34-24.68,29.88,27,28.46,28.46-27-23.91-28.29-22.63S69.67,293,68.35,294.27,43.4,272.62,42.22,273.8s25.46,23,24.25,24.24c-1.06,1.06-22.74-19.2-23.8-18.14s23,20.83,21.92,21.92S44.06,285.06,43.12,286s20.57,18.61,19.59,19.59-22.05-18.44-23.07-17.41,22.25,20.12,21.19,21.19-24.16-20.77-25.29-19.64S60.12,312,59,313.15,32.62,290,31.38,291.24c-2.12,2.11,44.48,40.24,42.36,42.36s-44.4-43.13-46.59-40.94c-1.77,1.77,37.16,33.63,35.39,35.4s-37.79-35.83-39.64-34c-1.36,1.36,28.54,25.83,27.18,27.19S20,293.93,18.54,295.37c-.86.86,18.06,16.34,17.2,17.2s-20.61-16.85-21.56-15.9c-.13.14,2.87,2.6,2.74,2.74" transform="translate(-6.94 -39.82)"/><path class="cls-9" d="M85.71,326.8c-.06.06,1.15,1,1.09,1.1-.46.46-11.13-6.4-11.6-5.94s10.52,9.51,10,10c-.94.94-20.61-16.86-21.56-15.91s21,19,20,20" transform="translate(-6.94 -39.82)"/><line class="cls-8" x1="325.5" y1="292.21" x2="325.5" y2="292.22"/><path class="cls-8" d="M403.28,296.65s.63.57.6.6c-.33.32-8.34-3.33-8.66-3s5.67,5.14,5.4,5.41c-.57.57-13.31-8.8-13.88-8.23s11.15,10.09,10.62,10.62c-.85.85-18.71-14.74-19.56-13.9s17.12,15.49,16.3,16.3" transform="translate(-6.94 -39.82)"/><path class="cls-8" d="M375.77,256.34s.4.37.38.39-3.51,1.85-3.65,2,3.67,3.32,3.5,3.5-6.53-1.36-6.78-1.12,6.94,6.28,6.61,6.61-9.5-4.6-9.88-4.22,10.13,9.16,9.65,9.65-12.48-7.89-13-7.36,13.26,12,12.63,12.63S359.85,267.36,359.17,268s16.45,14.89,15.67,15.67-18.26-14.25-19.08-13.43c-1.79,1.8,37.67,34.09,35.88,35.88s-37.5-35.5-39.34-33.67,37.76,34.16,36,35.95-37.67-35.69-39.51-33.85,37.94,34.32,36.13,36.13-37.84-35.88-39.69-34,38.11,34.49,36.3,36.3-38-36.05-39.86-34.2S379.8,313.31,378,315.13c-1.41,1.4-29.35-26.5-30.76-25.1s28.62,25.9,27.26,27.26c-.95.95-20.66-16.9-21.61-16s19,17.2,18.11,18.1c-.5.51-12-7.3-12.47-6.8s9.31,8.41,8.86,8.86-10.56-5.78-11-5.34,7.75,7,7.38,7.37-9.69-4.81-10.08-4.42,6.78,6.13,6.45,6.45-8.82-3.86-9.16-3.51,5.74,5.19,5.46,5.47-8-2.93-8.27-2.62,4.75,4.3,4.52,4.52-7.06-1.94-7.33-1.67,3.76,3.4,3.58,3.58-6.18-1-6.41-.75,2.73,2.47,2.6,2.6-5.31-.05-5.5.15,1.71,1.55,1.63,1.63-4.38,1-4.54,1.12.7.63.67.66" transform="translate(-6.94 -39.82)"/><path class="cls-10" d="M333.47,263.68c-.06.06,1.22,1.11,1.16,1.16s-4.68.64-4.85.81c-.52.53,11,10,10.47,10.47S326.62,267,326,267.56c-1,1,20.86,18.87,19.86,19.86s-22.56-19-23.61-17.95c-1.46,1.46,30.72,27.79,29.26,29.25s-31.52-28.89-33-27.37c-1.94,1.93,40.61,36.74,38.68,38.68s-40.6-38.93-42.59-36.94,43.77,39.61,41.69,41.7-43.46-42.1-45.61-40,44,39.84,41.94,41.93-43.71-42.36-45.86-40.2,44.23,40,42.12,42.13-44-42.73-46.2-40.55,44.58,40.33,42.46,42.45-44.35-43.07-46.54-40.88,44.85,40.58,42.71,42.72-44.6-43.36-46.8-41.15,45.12,40.82,43,43-45-43.76-47.2-41.54,45.46,41.13,43.29,43.29-45.3-44.12-47.54-41.88,45.78,41.42,43.6,43.6S284,283.18,281.69,285.44s46.13,41.74,43.94,43.94-46-44.92-48.3-42.64,46.5,42.07,44.29,44.29-46.48-45.42-48.78-43.12,46.92,42.45,44.69,44.68S270.63,286.7,268.3,289s47.36,42.84,45.1,45.1-47.33-46.37-49.67-44,47.79,43.23,45.51,45.51S261.4,288.69,259,291.07s48.26,43.67,46,46-48.28-47.41-50.67-45,48.75,44.11,46.42,46.43-48.85-48.05-51.27-45.62,49.24,44.55,46.9,46.9-49.35-48.6-51.8-46.15S294.36,338.63,292,341s-49.93-49.24-52.41-46.75,50.43,45.62,48,48-50.6-50-53.12-47.46,51,46.14,48.57,48.57-51.22-50.67-53.77-48.12S281,342,278.5,344.48s-51.91-51.43-54.5-48.84,52.43,47.43,49.94,49.93-52.68-52.28-55.31-49.65S271.74,344,269.21,346.5s-53.45-53.12-56.11-50.45,54,48.81,51.38,51.38-54.28-54-57-51.33,54.82,49.59,52.21,52.2-55.22-55.07-58-52.31,55.72,50.4,53.07,53.06c-2.82,2.81-56.17-56.13-59-53.32s56.76,51.36,54.06,54.06c-2.86,2.87-57.2-57.28-60.07-54.41s57.79,52.28,55,55c-2.93,2.92-58.38-58.58-61.31-55.65s59,53.38,56.2,56.19c-3,3-59.51-59.82-62.49-56.83s60.24,54.51,57.38,57.38c-3.07,3.06-61-61.44-64-58.37s61.64,55.77,58.7,58.7C226.16,355,167,289,163.88,292.08S227,349.17,224,352.17c-3.22,3.22-63.95-64.73-67.17-61.51s64.82,58.65,61.74,61.74c-3.31,3.3-65.63-66.59-68.94-63.28S216.15,349.33,213,352.5c-3.41,3.41-67.57-68.73-71-65.32s68.68,62.13,65.41,65.4c-3.53,3.54-69.88-71.28-73.41-67.75-3.38,3.38,71,64.23,67.6,67.61-3.66,3.66-72.36-74-76-70.37-3.51,3.51,73.73,66.71,70.22,70.22-3.82,3.82-75.38-77.36-79.2-73.54-3.65,3.66,76.85,69.52,73.19,73.18-4,4-78.72-81.05-82.71-77.05-3.83,3.83,80.46,72.8,76.63,76.63-4.21,4.21-82.8-85.56-87-81.35-4,4,84.8,76.72,80.76,80.76C173,355.4,89.41,259.55,84.92,264c-4.31,4.3,90.46,81.84,86.15,86.15s-84.7-87.67-89-83.36c-4.12,4.12,86.6,78.35,82.48,82.47s-80.27-82.77-84.35-78.69c-3.88,3.88,81.51,73.75,77.63,77.63S82.14,270.55,78.3,274.39c-3.63,3.63,76.22,69,72.59,72.59S80,274.58,76.43,278.17c-3.37,3.37,70.73,64,67.36,67.36s-65.92-66.91-69.25-63.59c-3.09,3.1,65,58.77,61.86,61.86s-60.69-61.13-63.74-58.08c-2.81,2.81,59,53.38,56.2,56.19s-55.32-55.18-58.08-52.42c-2.5,2.51,52.57,47.57,50.07,50.07S71.36,290.81,68.9,293.27c-2.19,2.18,45.9,41.53,43.71,43.71S69.16,294.9,67,297c-1.85,1.85,38.76,35.07,36.91,36.92s-37-34.95-38.8-33.14c-1.48,1.48,31.06,28.09,29.58,29.57s-30-27.24-31.46-25.8c-1.09,1.09,22.89,20.71,21.8,21.8s-22.63-19.08-23.68-18c-.66.65,13.79,12.47,13.13,13.13s-14.39-10-15-9.36c-.17.17,3.62,3.28,3.45,3.45" transform="translate(-6.94 -39.82)"/><path class="cls-9" d="M358.28,313.78l.12.12c-.15.15-3.64,1.71-3.79,1.86s1.13,1,1.08,1.08-4.6.72-4.77.89,2.16,2,2.06,2.06-5.61-.36-5.81-.15,3.22,2.91,3.07,3.07-6.61-1.44-6.85-1.2,4.24,3.84,4,4.05-7.58-2.51-7.87-2.22,5.31,4.81,5.06,5.06-8.59-3.61-8.93-3.27,6.39,5.78,6.08,6.08-9.6-4.72-10-4.33,7.45,6.74,7.1,7.09c-.2.2-5.45-.18-5.65,0s2.89,2.61,2.75,2.74" transform="translate(-6.94 -39.82)"/><path class="cls-11" d="M340.75,369.52c-.64.64,13.6,12.3,12.95,12.94S338.28,371.35,337.61,372c-.12.12,2.41,2.19,2.3,2.31s-4.94.35-5.12.53,2.41,2.19,2.3,2.3-4.95.35-5.13.53,2.42,2.19,2.31,2.31c-.68.67-15.38-11.07-16.06-10.4s13.89,12.57,13.23,13.23-15.9-11.65-16.6-10.94c-.11.11,2.42,2.18,2.3,2.3s-4.94.34-5.13.53,2.42,2.18,2.3,2.3-4.94.34-5.12.52,2.41,2.19,2.3,2.31-4.95.34-5.13.52,2.41,2.19,2.3,2.31c-.71.7-16-11.74-16.69-11-.11.11,2.42,2.18,2.3,2.3s-4.94.35-5.12.53,2.42,2.19,2.3,2.3-4.94.35-5.12.54,2.42,2.18,2.3,2.3-4.94.35-5.12.53,2.41,2.19,2.3,2.3c-.71.7-15.9-11.65-16.61-10.94-.11.11,2.43,2.19,2.31,2.3s-4.95.34-5.13.52,2.42,2.19,2.3,2.31-4.95.34-5.13.53,2.42,2.18,2.3,2.3-5,.34-5.13.52,2.42,2.19,2.31,2.31" transform="translate(-6.94 -39.82)"/><path class="cls-11" d="M77.83,124c-.56.56,11.79,10.67,11.23,11.24s-13.71-9.25-14.3-8.65c-.1.09,2.07,1.88,2,2s-4.63.68-4.81.85,2.08,1.88,2,2-4.63.68-4.8.86,2.08,1.88,2,2c-.61.61-14.08-9.65-14.69-9s12,10.87,11.44,11.44-13.68-9.2-14.27-8.61c-.1.1,2.08,1.88,2,2s-4.63.68-4.81.85,2.08,1.88,2,2c-.6.6-13.89-9.44-14.49-8.84S50.48,135.11,49.9,135.7,35.74,126,35.13,126.59c-.1.1,2.08,1.88,2,2s-4.63.68-4.8.85,2.07,1.88,2,2-4.63.69-4.8.86,2.07,1.88,2,2c-.6.61-14.07-9.65-14.68-9s12.06,10.92,11.49,11.5S14.54,127.44,14,128c-.1.1,2.07,1.88,2,2s-4.64.68-4.81.85,2.08,1.88,2,2-4.64.68-4.81.85,2.08,1.88,2,2" transform="translate(-6.94 -39.82)"/><path class="cls-11" d="M403.5,203.7c-.2.2,4.12,3.73,3.93,3.93-.37.36-9.22-4.29-9.58-3.93-.93.93,19.43,17.59,18.51,18.51-1.08,1.08-23.1-19.58-24.17-18.51s22.72,20.56,21.64,21.64c-.86.86-18.9-15-19.76-14.1s18.09,16.37,17.23,17.23c-.45.45-11-6.25-11.45-5.8s9.37,8.48,8.92,8.93-11-6.27-11.47-5.81,9.39,8.49,8.94,8.94-11-6.28-11.48-5.83,8.74,7.91,8.32,8.32-10.43-5.63-10.86-5.2c-.26.26,5.47,4.94,5.2,5.2s-7.46-2.37-7.74-2.09c-.11.11,2.19,2,2.09,2.09" transform="translate(-6.94 -39.82)"/><path class="cls-11" d="M378.56,203.7c-.2.2,4.12,3.73,3.92,3.93-.37.36-9.22-4.29-9.58-3.93-.93.93,19.43,17.59,18.51,18.51-1.08,1.08-23.09-19.59-24.17-18.51s22.72,20.56,21.64,21.64c-.86.86-18.91-15-19.76-14.11s18.09,16.38,17.23,17.24c-.45.45-11-6.25-11.45-5.8s9.37,8.48,8.92,8.93-11-6.27-11.46-5.81,9.38,8.49,8.94,8.94-11-6.28-11.48-5.83,8.73,7.91,8.32,8.32-10.44-5.63-10.87-5.2c-.26.26,5.47,4.94,5.21,5.2s-7.46-2.37-7.75-2.09c-.1.11,2.2,2,2.09,2.09" transform="translate(-6.94 -39.82)"/><path class="cls-11" d="M353.61,203.7c-.19.2,4.08,3.69,3.88,3.88-.36.37-9.17-4.24-9.54-3.88-.92.93,19.43,17.58,18.51,18.51-1.08,1.08-23.09-19.59-24.17-18.51s22.72,20.56,21.64,21.64c-.86.86-18.9-15-19.76-14.1s18.09,16.36,17.23,17.22c-.45.46-11-6.24-11.45-5.79s9.37,8.48,8.92,8.92-11-6.26-11.46-5.8,9.38,8.48,8.93,8.93-11-6.27-11.47-5.82,8.74,7.91,8.32,8.32-10.44-5.63-10.86-5.2c-.26.26,5.46,4.94,5.2,5.2s-7.46-2.37-7.75-2.09c-.1.11,2.2,2,2.1,2.09" transform="translate(-6.94 -39.82)"/><path class="cls-11" d="M328.66,203.7c-.19.2,4.08,3.69,3.89,3.89-.37.36-9.18-4.25-9.54-3.89-.93.93,19.43,17.59,18.51,18.51-1.08,1.08-23.1-19.58-24.17-18.51s22.72,20.56,21.63,21.64c-.85.86-18.89-15-19.75-14.1s18.09,16.37,17.23,17.23c-.46.45-11-6.25-11.45-5.79s9.37,8.47,8.92,8.92-11-6.27-11.47-5.81,9.39,8.49,8.94,8.94-11-6.28-11.48-5.83,8.74,7.91,8.32,8.32-10.44-5.63-10.86-5.2c-.26.26,5.47,4.94,5.21,5.2s-7.47-2.37-7.75-2.09c-.11.11,2.19,2,2.09,2.09" transform="translate(-6.94 -39.82)"/><path class="cls-11" d="M130.87,40.86c-.19.2,4.12,3.73,3.93,3.93-.37.36-9.22-4.29-9.59-3.93-.92.93,19.44,17.59,18.51,18.51-1.07,1.08-23.09-19.58-24.16-18.51S142.28,61.42,141.2,62.5c-.86.86-18.9-15-19.76-14.09s18.09,16.36,17.23,17.22c-.46.45-11-6.25-11.45-5.8s9.36,8.48,8.92,8.93-11-6.27-11.47-5.81,9.39,8.49,8.94,8.94-11-6.28-11.48-5.83,8.74,7.91,8.32,8.32-10.44-5.63-10.86-5.2c-.26.26,5.46,4.94,5.2,5.2s-7.46-2.37-7.74-2.09c-.11.11,2.19,2,2.08,2.09" transform="translate(-6.94 -39.82)"/><path class="cls-11" d="M105.92,40.86c-.19.2,4.13,3.73,3.93,3.93-.37.37-9.22-4.29-9.58-3.93-.93.93,19.43,17.59,18.51,18.51-1.08,1.08-23.09-19.58-24.17-18.51s22.72,20.56,21.64,21.64c-.86.86-18.9-15-19.76-14.1s18.09,16.37,17.23,17.23c-.45.45-11-6.25-11.45-5.8s9.37,8.48,8.92,8.93-11-6.26-11.46-5.81,9.38,8.49,8.93,8.94-11-6.28-11.48-5.83,8.74,7.91,8.32,8.32-10.43-5.63-10.86-5.2c-.26.26,5.47,4.94,5.21,5.2S92.38,72,92.1,72.29c-.11.11,2.19,2,2.09,2.09" transform="translate(-6.94 -39.82)"/><path class="cls-11" d="M81,40.86c-.2.2,4.12,3.73,3.92,3.93-.36.36-9.21-4.29-9.58-3.93-.92.93,19.44,17.59,18.51,18.51-1.07,1.08-23.09-19.58-24.16-18.51S92.38,61.42,91.3,62.5c-.86.86-18.9-15-19.76-14.1s18.1,16.37,17.23,17.23c-.45.45-11-6.25-11.45-5.79s9.37,8.47,8.93,8.92S75.24,62.5,74.78,63s9.38,8.49,8.94,8.94-11-6.28-11.48-5.83S81,74,80.56,74.38s-10.44-5.63-10.86-5.2c-.26.26,5.46,4.94,5.2,5.2S67.44,72,67.15,72.29c-.1.11,2.2,2,2.09,2.09" transform="translate(-6.94 -39.82)"/><path class="cls-11" d="M56,40.86c-.19.2,4.12,3.73,3.93,3.93-.37.36-9.22-4.29-9.58-3.93-.93.93,19.43,17.59,18.5,18.51-1.07,1.08-23.09-19.58-24.16-18.51S67.44,61.42,66.36,62.5c-.86.86-18.91-15-19.76-14.1S64.69,64.77,63.83,65.63c-.46.45-11-6.25-11.45-5.8s9.37,8.48,8.92,8.93-11-6.27-11.47-5.81,9.39,8.49,8.94,8.94-11-6.28-11.48-5.83S56,74,55.61,74.38s-10.44-5.63-10.86-5.2c-.26.26,5.46,4.94,5.2,5.2S42.49,72,42.21,72.29c-.11.11,2.19,2,2.09,2.09" transform="translate(-6.94 -39.82)"/><g class="cls-12"><path class="cls-13" d="M365.63,218.27c0,5.09-7.87,9.75-8.35,14.71s6.32,11.15,5.35,16.06-9.61,8-11.06,12.79,4,12.17,2.1,16.79-11,6-13.37,10.38,1.57,12.7-1.22,16.88-11.94,3.68-15.14,7.56-.92,12.76-4.49,16.32-12.42,1.29-16.31,4.48-3.38,12.33-7.57,15.14-12.42-1.16-16.87,1.23S273,362,268.32,364s-11.94-3.57-16.79-2.1-7.82,10.08-12.8,11.06-11-5.84-16-5.35-9.63,8.36-14.72,8.36-9.75-7.88-14.71-8.36-11.15,6.32-16,5.35-8-9.61-12.8-11.06-12.16,4-16.79,2.1-6-11-10.38-13.37-12.7,1.57-16.87-1.22-3.69-11.95-7.57-15.14-12.76-.93-16.32-4.49S95.2,317.33,92,313.44s-12.33-3.38-15.13-7.56S78,293.45,75.64,289s-11.43-5.71-13.37-10.38,3.57-11.94,2.11-16.79S54.29,254,53.31,249s5.84-11,5.35-16.05-8.35-9.62-8.35-14.71,7.87-9.75,8.35-14.71-6.32-11.15-5.35-16.05,9.61-8,11.07-12.8-4-12.16-2.11-16.79,11-6,13.37-10.38-1.57-12.7,1.23-16.87S88.81,127,92,123.1s.93-12.75,4.49-16.32,12.42-1.29,16.31-4.48,3.38-12.33,7.57-15.13,12.42,1.15,16.87-1.23S143,74.51,147.62,72.57s11.94,3.57,16.79,2.1,7.82-10.08,12.8-11.06,11,5.84,16,5.35,9.62-8.35,14.71-8.35,9.75,7.87,14.72,8.35,11.14-6.32,16-5.35,8,9.61,12.81,11.06,12.16-4,16.78-2.1,6,11,10.38,13.37,12.7-1.57,16.88,1.23,3.68,11.94,7.56,15.13,12.76.93,16.32,4.49,1.29,12.42,4.49,16.31,12.32,3.38,15.13,7.57-1.16,12.42,1.23,16.87,11.43,5.71,13.36,10.38-3.57,11.94-2.1,16.79,10.08,7.82,11.06,12.8-5.84,11-5.35,16.05S365.63,213.18,365.63,218.27Z" transform="translate(-6.94 -39.82)"/><path class="cls-13" d="M208,86.69A131.58,131.58,0,1,0,339.55,218.27,131.58,131.58,0,0,0,208,86.69Zm0,225.72a94.14,94.14,0,1,1,94.14-94.14A94.14,94.14,0,0,1,208,312.41Z" transform="translate(-6.94 -39.82)"/><rect class="cls-13" x="114.87" y="117.84" width="172.86" height="146.65"/><rect class="cls-13" x="126.13" y="127.4" width="150.34" height="97.32"/><rect class="cls-13" x="162.4" y="191.23" width="80.88" height="26.44"/><rect class="cls-13" x="165.22" y="193.39" width="2.84" height="22.12"/><rect class="cls-13" x="171.8" y="193.39" width="2.85" height="22.12"/><rect class="cls-13" x="178.38" y="193.39" width="2.85" height="22.12"/><rect class="cls-13" x="184.96" y="193.39" width="2.85" height="22.12"/><rect class="cls-13" x="191.54" y="193.39" width="2.85" height="22.12"/><rect class="cls-13" x="198.12" y="193.39" width="2.84" height="22.12"/><rect class="cls-13" x="204.7" y="193.39" width="2.84" height="22.12"/><rect class="cls-13" x="211.28" y="193.39" width="2.85" height="22.12"/><rect class="cls-13" x="217.86" y="193.39" width="2.85" height="22.12"/><rect class="cls-13" x="224.44" y="193.39" width="2.85" height="22.12"/><rect class="cls-13" x="231.02" y="193.39" width="2.85" height="22.12"/><rect class="cls-13" x="237.6" y="193.39" width="2.84" height="22.12"/><path class="cls-13" d="M136.14,259.38a2.22,2.22,0,1,0,2.22-2.23A2.22,2.22,0,0,0,136.14,259.38Z" transform="translate(-6.94 -39.82)"/><path class="cls-13" d="M137,259.38a1.39,1.39,0,1,0,1.39-1.39A1.39,1.39,0,0,0,137,259.38Z" transform="translate(-6.94 -39.82)"/><path class="cls-13" d="M276.08,259.38a2.22,2.22,0,1,0,2.22-2.23A2.22,2.22,0,0,0,276.08,259.38Z" transform="translate(-6.94 -39.82)"/><path class="cls-13" d="M276.91,259.38A1.39,1.39,0,1,0,278.3,258,1.38,1.38,0,0,0,276.91,259.38Z" transform="translate(-6.94 -39.82)"/><path class="cls-13" d="M157.46,251.38a6.85,6.85,0,1,1,6.85-6.86A6.86,6.86,0,0,1,157.46,251.38Z" transform="translate(-6.94 -39.82)"/><path class="cls-13" d="M157.46,249.26a4.74,4.74,0,1,1,4.74-4.74A4.74,4.74,0,0,1,157.46,249.26Z" transform="translate(-6.94 -39.82)"/><path class="cls-13" d="M162.63,244.52a5.23,5.23,0,1,0-5.23,5.24A5.23,5.23,0,0,0,162.63,244.52Zm-9.36,0a4.13,4.13,0,1,1,4.13,4.14A4.13,4.13,0,0,1,153.27,244.52Z" transform="translate(-6.94 -39.82)"/><path class="cls-13" d="M261,251.38a6.85,6.85,0,1,1,6.85-6.86A6.86,6.86,0,0,1,261,251.38Z" transform="translate(-6.94 -39.82)"/><path class="cls-13" d="M261,249.26a4.74,4.74,0,1,1,4.74-4.74A4.74,4.74,0,0,1,261,249.26Z" transform="translate(-6.94 -39.82)"/><path class="cls-13" d="M266.17,244.52a5.23,5.23,0,1,0-5.23,5.24A5.23,5.23,0,0,0,266.17,244.52Zm-9.36,0a4.13,4.13,0,1,1,4.13,4.14A4.13,4.13,0,0,1,256.81,244.52Z" transform="translate(-6.94 -39.82)"/><rect class="cls-13" x="114.81" y="228.75" width="172.98" height="54.99"/><path class="cls-13" d="M186.45,167.56a40.21,40.21,0,1,1-40.2-40.2A40.2,40.2,0,0,1,186.45,167.56Z" transform="translate(-6.94 -39.82)"/><path class="cls-13" d="M183.29,167.56a37,37,0,1,1-37-37A37,37,0,0,1,183.29,167.56Z" transform="translate(-6.94 -39.82)"/><path class="cls-13" d="M177.67,167.56a31.42,31.42,0,1,1-31.42-31.41A31.42,31.42,0,0,1,177.67,167.56Z" transform="translate(-6.94 -39.82)"/><path class="cls-13" d="M171.51,167.56a25.26,25.26,0,1,1-25.26-25.26A25.26,25.26,0,0,1,171.51,167.56Z" transform="translate(-6.94 -39.82)"/><path class="cls-13" d="M166.46,167.56a20.21,20.21,0,1,1-20.21-20.21A20.21,20.21,0,0,1,166.46,167.56Z" transform="translate(-6.94 -39.82)"/><path class="cls-13" d="M146.25,111.79A55.77,55.77,0,1,0,202,167.56,55.77,55.77,0,0,0,146.25,111.79Zm0,104a48.22,48.22,0,1,1,48.21-48.22A48.22,48.22,0,0,1,146.25,215.78Z" transform="translate(-6.94 -39.82)"/><path class="cls-13" d="M146.25,118a49.55,49.55,0,1,0,49.55,49.54A49.54,49.54,0,0,0,146.25,118ZM105.8,151.15,115.55,137l16.73,14.16L125.1,161.6ZM149,209.9l-18.56-3.34,6.68-21.14,12.54,2Zm17.14-45.29L160,153.49l18-12.71,9,16.41Z" transform="translate(-6.94 -39.82)"/><path class="cls-13" d="M160.17,167.89a13.34,13.34,0,1,1-13.34-13.33A13.33,13.33,0,0,1,160.17,167.89Z" transform="translate(-6.94 -39.82)"/><path class="cls-13" d="M155.72,167.89a8.89,8.89,0,1,1-8.89-8.89A8.88,8.88,0,0,1,155.72,167.89Z" transform="translate(-6.94 -39.82)"/><path class="cls-13" d="M140.2,170a.94.94,0,0,1-1-.92v-.14a8,8,0,0,1,7.81-8,1,1,0,0,1,0,2,6,6,0,0,0-5.85,6,1,1,0,0,1-1,1.06Z" transform="translate(-6.94 -39.82)"/><circle class="cls-13" cx="263.29" cy="127.74" r="40.2"/><path class="cls-13" d="M307.27,167.56a37,37,0,1,1-37-37A37,37,0,0,1,307.27,167.56Z" transform="translate(-6.94 -39.82)"/><path class="cls-13" d="M301.65,167.56a31.42,31.42,0,1,1-31.42-31.41A31.42,31.42,0,0,1,301.65,167.56Z" transform="translate(-6.94 -39.82)"/><path class="cls-13" d="M295.5,167.56a25.27,25.27,0,1,1-25.27-25.26A25.27,25.27,0,0,1,295.5,167.56Z" transform="translate(-6.94 -39.82)"/><path class="cls-13" d="M290.44,167.56a20.21,20.21,0,1,1-20.21-20.21A20.21,20.21,0,0,1,290.44,167.56Z" transform="translate(-6.94 -39.82)"/><path class="cls-13" d="M270.23,111.79A55.77,55.77,0,1,0,326,167.56,55.77,55.77,0,0,0,270.23,111.79Zm0,104a48.22,48.22,0,1,1,48.22-48.22A48.21,48.21,0,0,1,270.23,215.78Z" transform="translate(-6.94 -39.82)"/><path class="cls-13" d="M270.23,118a49.55,49.55,0,1,0,49.55,49.54A49.55,49.55,0,0,0,270.23,118Zm-40.44,33.13L239.53,137l16.73,14.16-7.18,10.48ZM273,209.9l-18.57-3.34,6.68-21.14,12.54,2Zm17.13-45.29L284,153.49l18-12.71,9,16.41Z" transform="translate(-6.94 -39.82)"/><circle class="cls-13" cx="263.87" cy="128.07" r="13.33"/><path class="cls-13" d="M279.7,167.89a8.89,8.89,0,1,1-8.88-8.89A8.87,8.87,0,0,1,279.7,167.89Z" transform="translate(-6.94 -39.82)"/><path class="cls-13" d="M264.18,170a.94.94,0,0,1-1-.92v-.14a8,8,0,0,1,7.81-8,1,1,0,1,1,0,2,6,6,0,0,0-5.85,6,1,1,0,0,1-1,1.06Z" transform="translate(-6.94 -39.82)"/><rect class="cls-13" x="209.66" y="237.51" width="27.34" height="37.29"/><rect class="cls-13" x="211.83" y="240.48" width="22.99" height="16"/><rect class="cls-13" x="213.24" y="241.76" width="19.87" height="13.28"/><rect class="cls-13" x="213.17" y="258.01" width="2.55" height="14.98"/><rect class="cls-13" x="219.08" y="258.01" width="2.55" height="14.98"/><rect class="cls-13" x="224.98" y="258.01" width="2.55" height="14.98"/><rect class="cls-13" x="230.89" y="258.01" width="2.55" height="14.98"/><rect class="cls-13" x="244.47" y="237.51" width="27.34" height="37.29"/><rect class="cls-13" x="246.64" y="240.48" width="22.99" height="16"/><rect class="cls-13" x="248.04" y="241.76" width="19.86" height="13.28"/><rect class="cls-13" x="247.98" y="258.01" width="2.55" height="14.98"/><rect class="cls-13" x="253.88" y="258.01" width="2.55" height="14.98"/><rect class="cls-13" x="259.79" y="258.01" width="2.55" height="14.98"/><rect class="cls-13" x="265.69" y="258.01" width="2.55" height="14.98"/><path class="cls-13" d="M148.28,291a6.86,6.86,0,1,1,6.85-6.85A6.85,6.85,0,0,1,148.28,291Z" transform="translate(-6.94 -39.82)"/><path class="cls-13" d="M148.28,288.92a4.74,4.74,0,1,1,4.73-4.73A4.74,4.74,0,0,1,148.28,288.92Z" transform="translate(-6.94 -39.82)"/><path class="cls-13" d="M153.45,284.19a5.23,5.23,0,1,0-5.23,5.23A5.24,5.24,0,0,0,153.45,284.19Zm-9.36,0a4.13,4.13,0,1,1,4.13,4.13A4.12,4.12,0,0,1,144.09,284.19Z" transform="translate(-6.94 -39.82)"/><path class="cls-13" d="M170.42,291a6.86,6.86,0,1,1,6.86-6.85A6.85,6.85,0,0,1,170.42,291Z" transform="translate(-6.94 -39.82)"/><path class="cls-13" d="M170.42,288.92a4.74,4.74,0,1,1,4.74-4.73A4.73,4.73,0,0,1,170.42,288.92Z" transform="translate(-6.94 -39.82)"/><path class="cls-13" d="M175.59,284.19a5.23,5.23,0,1,0-5.23,5.23A5.24,5.24,0,0,0,175.59,284.19Zm-9.36,0a4.13,4.13,0,1,1,4.13,4.13A4.12,4.12,0,0,1,166.23,284.19Z" transform="translate(-6.94 -39.82)"/><path class="cls-13" d="M192.57,291a6.85,6.85,0,1,1,6.85-6.85A6.86,6.86,0,0,1,192.57,291Z" transform="translate(-6.94 -39.82)"/><path class="cls-13" d="M192.57,288.92a4.74,4.74,0,1,1,4.73-4.73A4.74,4.74,0,0,1,192.57,288.92Z" transform="translate(-6.94 -39.82)"/><path class="cls-13" d="M197.74,284.19a5.24,5.24,0,1,0-5.24,5.23A5.25,5.25,0,0,0,197.74,284.19Zm-9.36,0a4.13,4.13,0,1,1,4.12,4.13A4.12,4.12,0,0,1,188.38,284.19Z" transform="translate(-6.94 -39.82)"/><rect class="cls-13" x="134.59" y="255.59" width="12.4" height="17.96"/><rect class="cls-13" x="135.97" y="257.05" width="9.64" height="15.04"/><rect class="cls-13" x="156.81" y="255.59" width="12.4" height="17.96"/><rect class="cls-13" x="158.18" y="257.05" width="9.64" height="15.04"/><rect class="cls-13" x="159.33" y="258.1" width="7.34" height="12.94"/><rect class="cls-13" x="180.49" y="255.59" width="12.4" height="17.96"/><rect class="cls-13" x="181.86" y="257.05" width="9.64" height="15.04"/><rect class="cls-13" x="183.01" y="258.1" width="7.34" height="12.94"/><rect class="cls-13" x="119.46" y="231.94" width="163.67" height="48.6"/><path class="cls-13" d="M284.36,274.87a1.72,1.72,0,1,0,1.72-1.72A1.72,1.72,0,0,0,284.36,274.87Z" transform="translate(-6.94 -39.82)"/><path class="cls-13" d="M285,274.87a1.08,1.08,0,1,0,1.08-1.07A1.08,1.08,0,0,0,285,274.87Z" transform="translate(-6.94 -39.82)"/><path class="cls-13" d="M284.36,316.25a1.72,1.72,0,1,0,1.72-1.73A1.71,1.71,0,0,0,284.36,316.25Z" transform="translate(-6.94 -39.82)"/><path class="cls-13" d="M285,316.25a1.08,1.08,0,1,0,1.08-1.08A1.07,1.07,0,0,0,285,316.25Z" transform="translate(-6.94 -39.82)"/><path class="cls-13" d="M129,274.87a1.72,1.72,0,1,0,1.72-1.72A1.73,1.73,0,0,0,129,274.87Z" transform="translate(-6.94 -39.82)"/><path class="cls-13" d="M129.66,274.87a1.08,1.08,0,1,0,1.07-1.07A1.07,1.07,0,0,0,129.66,274.87Z" transform="translate(-6.94 -39.82)"/><path class="cls-13" d="M129,316.25a1.72,1.72,0,1,0,1.72-1.73A1.72,1.72,0,0,0,129,316.25Z" transform="translate(-6.94 -39.82)"/><path class="cls-13" d="M129.66,316.25a1.08,1.08,0,1,0,1.07-1.08A1.07,1.07,0,0,0,129.66,316.25Z" transform="translate(-6.94 -39.82)"/><path class="cls-13" d="M83,337.88a327.64,327.64,0,0,1-69.61-41,293.87,293.87,0,0,0,29.73-10c-1-10.4-1.52-20.73-1.59-30.92A280.77,280.77,0,0,0,101.15,291Z" transform="translate(-6.94 -39.82)"/><path class="cls-13" d="M83,337.93,87,327.37a311.71,311.71,0,0,1-28.23-13.94A331.82,331.82,0,0,0,83,337.93Z" transform="translate(-6.94 -39.82)"/><path class="cls-13" d="M334.72,338a327.57,327.57,0,0,0,69.63-41,296.38,296.38,0,0,1-29.73-10q1.49-15.62,1.59-30.93A280.53,280.53,0,0,1,316.6,291.1Z" transform="translate(-6.94 -39.82)"/><path class="cls-13" d="M358.88,313.42a306.59,306.59,0,0,1-300.06,0l24.95-50a255.56,255.56,0,0,0,250.17,0Q346.41,288.41,358.88,313.42Z" transform="translate(-6.94 -39.82)"/><path class="cls-13" d="M334.73,337.91l-4.08-10.56q14.34-6.21,28.23-13.93A331.81,331.81,0,0,1,334.73,337.91Z" transform="translate(-6.94 -39.82)"/><path class="cls-13" d="M306.32,384.37a1.69,1.69,0,0,1-1.17-.49L294.76,373.5l-10.27,10.32a1.66,1.66,0,0,1-1.17.49h0a1.68,1.68,0,0,1-1.18-.49l-10.3-10.3-10.16,10.17a1.68,1.68,0,0,1-2.35,0,1.66,1.66,0,0,1,0-2.35L270.67,370a1.66,1.66,0,0,1,2.35,0l10.29,10.3L293.59,370a1.7,1.7,0,0,1,1.17-.49h0a1.66,1.66,0,0,1,1.17.49l10.39,10.38L316.7,370a1.7,1.7,0,0,1,2.34,0l10.3,10.3L339.61,370a1.68,1.68,0,0,1,1.17-.49h0A1.66,1.66,0,0,1,342,370l11.34,11.34a1.66,1.66,0,1,1-2.35,2.34l-10.16-10.16L330.52,383.8a1.66,1.66,0,0,1-1.18.49h0a1.65,1.65,0,0,1-1.17-.48l-10.3-10.3L307.5,383.88A1.69,1.69,0,0,1,306.32,384.37Z" transform="translate(-6.94 -39.82)"/><path class="cls-13" d="M48.23,136.81a1.43,1.43,0,0,1-1-.42l-8.95-8.95-8.85,8.89a1.43,1.43,0,0,1-1,.43h0a1.45,1.45,0,0,1-1-.42l-8.88-8.88-8.76,8.76a1.43,1.43,0,0,1-2-2l9.77-9.77a1.42,1.42,0,0,1,2,0l8.87,8.87,8.86-8.89a1.42,1.42,0,0,1,1-.42h0a1.42,1.42,0,0,1,1,.42l8.95,9,8.94-8.94a1.46,1.46,0,0,1,2,0l8.88,8.87,8.85-8.89a1.42,1.42,0,0,1,1-.42h0a1.41,1.41,0,0,1,1,.42l9.78,9.77a1.43,1.43,0,1,1-2,2l-8.76-8.76-8.86,8.89a1.42,1.42,0,0,1-1,.42h0a1.46,1.46,0,0,1-1-.41l-8.88-8.88-8.93,8.94A1.44,1.44,0,0,1,48.23,136.81Z" transform="translate(-6.94 -39.82)"/><polygon class="cls-14" points="397.28 197.43 380.97 197.43 394.63 180.73 380.97 163.85 397.28 163.85 410.94 180.55 397.28 197.43"/><polygon class="cls-14" points="372.33 197.43 356.02 197.43 369.68 180.73 356.02 163.85 372.33 163.85 385.99 180.55 372.33 197.43"/><polygon class="cls-14" points="347.39 197.43 331.07 197.43 344.73 180.73 331.07 163.85 347.39 163.85 361.05 180.55 347.39 197.43"/><polygon class="cls-14" points="322.44 197.43 306.13 197.43 319.79 180.73 306.13 163.85 322.44 163.85 336.1 180.55 322.44 197.43"/><polygon class="cls-14" points="124.65 34.59 108.34 34.59 122 17.89 108.34 1.01 124.65 1.01 138.31 17.71 124.65 34.59"/><polygon class="cls-14" points="99.7 34.59 83.39 34.59 97.05 17.89 83.39 1.01 99.7 1.01 113.36 17.71 99.7 34.59"/><polygon class="cls-14" points="74.76 34.59 58.44 34.59 72.1 17.89 58.44 1.01 74.76 1.01 88.42 17.71 74.76 34.59"/><polygon class="cls-14" points="49.81 34.59 33.49 34.59 47.16 17.89 33.49 1.01 49.81 1.01 63.47 17.71 49.81 34.59"/></g></g></g></svg>